G04*
G04 #@! TF.GenerationSoftware,Altium Limited,Altium Designer,21.0.8 (223)*
G04*
G04 Layer_Color=16711935*
%FSLAX24Y24*%
%MOIN*%
G70*
G04*
G04 #@! TF.SameCoordinates,F666B87A-DE90-4157-A89C-B26E4A6581EA*
G04*
G04*
G04 #@! TF.FilePolarity,Negative*
G04*
G01*
G75*
%ADD14C,0.1261*%
%ADD15R,0.0674X0.0674*%
%ADD16C,0.0674*%
%ADD17C,0.0680*%
%ADD18C,0.0280*%
%ADD19C,0.0330*%
G04:AMPARAMS|DCode=30|XSize=86.7mil|YSize=126.1mil|CornerRadius=23.7mil|HoleSize=0mil|Usage=FLASHONLY|Rotation=270.000|XOffset=0mil|YOffset=0mil|HoleType=Round|Shape=RoundedRectangle|*
%AMROUNDEDRECTD30*
21,1,0.0867,0.0787,0,0,270.0*
21,1,0.0394,0.1261,0,0,270.0*
1,1,0.0474,-0.0394,-0.0197*
1,1,0.0474,-0.0394,0.0197*
1,1,0.0474,0.0394,0.0197*
1,1,0.0474,0.0394,-0.0197*
%
%ADD30ROUNDEDRECTD30*%
D14*
X1772Y20079D02*
D03*
Y1969D02*
D03*
X37598Y20079D02*
D03*
X38189Y1575D02*
D03*
D15*
X15700Y18550D02*
D03*
D16*
Y17550D02*
D03*
Y16550D02*
D03*
Y15550D02*
D03*
Y14550D02*
D03*
Y13550D02*
D03*
Y12550D02*
D03*
Y11550D02*
D03*
Y10550D02*
D03*
Y9550D02*
D03*
Y8550D02*
D03*
Y7550D02*
D03*
Y6550D02*
D03*
Y5550D02*
D03*
Y4550D02*
D03*
Y3550D02*
D03*
X23700Y7550D02*
D03*
Y8550D02*
D03*
Y9550D02*
D03*
Y10550D02*
D03*
Y11550D02*
D03*
Y12550D02*
D03*
Y13550D02*
D03*
Y14550D02*
D03*
Y15550D02*
D03*
Y16550D02*
D03*
Y17550D02*
D03*
Y18550D02*
D03*
D17*
X21161Y15354D02*
D03*
X20161D02*
D03*
X19161D02*
D03*
X18161D02*
D03*
X33601Y19211D02*
D03*
X32602Y19216D02*
D03*
X31599Y19209D02*
D03*
X30601Y19212D02*
D03*
X29601Y19212D02*
D03*
X28601Y19217D02*
D03*
X4093Y14807D02*
D03*
X4098Y15828D02*
D03*
X4090Y19103D02*
D03*
X4095Y20124D02*
D03*
X11498Y14792D02*
D03*
X11503Y15813D02*
D03*
X11495Y19088D02*
D03*
X11500Y20109D02*
D03*
X31176Y608D02*
D03*
X25505Y608D02*
D03*
X31177Y9703D02*
D03*
X29992Y9704D02*
D03*
X26696Y9708D02*
D03*
X25516Y9709D02*
D03*
X34583Y20106D02*
D03*
X33583D02*
D03*
X32583D02*
D03*
X31583D02*
D03*
X30583D02*
D03*
X37357Y14740D02*
D03*
X37350Y16300D02*
D03*
X29916Y14740D02*
D03*
X29932Y18128D02*
D03*
X4134Y12008D02*
D03*
X5134D02*
D03*
X6134D02*
D03*
X7134D02*
D03*
X8134D02*
D03*
X10134D02*
D03*
X11117D02*
D03*
X12117D02*
D03*
X13117D02*
D03*
X9134D02*
D03*
X37174Y2836D02*
D03*
X32253D02*
D03*
X33533D02*
D03*
X34714D02*
D03*
X35895D02*
D03*
X35039Y7769D02*
D03*
X34040Y7774D02*
D03*
X36046Y7767D02*
D03*
X34050Y4837D02*
D03*
X36048Y4839D02*
D03*
X35039Y4830D02*
D03*
X2852Y12322D02*
D03*
Y11322D02*
D03*
Y10322D02*
D03*
Y9322D02*
D03*
D18*
X22900Y17650D02*
D03*
X22550Y16800D02*
D03*
D19*
X17250Y8000D02*
D03*
X17050Y6550D02*
D03*
X19600Y8550D02*
D03*
X12500Y13500D02*
D03*
X14650Y6897D02*
D03*
X19750Y4550D02*
D03*
X13150Y13900D02*
D03*
X14550Y19450D02*
D03*
X16600Y19200D02*
D03*
X21850Y4550D02*
D03*
X15267Y9047D02*
D03*
X21777Y12016D02*
D03*
X30700Y4150D02*
D03*
X25150Y18612D02*
D03*
X32600Y3900D02*
D03*
X35450Y20200D02*
D03*
X36688Y12488D02*
D03*
X20700Y850D02*
D03*
X36100Y13900D02*
D03*
X20850Y12100D02*
D03*
D30*
X1859Y15257D02*
D03*
Y17028D02*
D03*
X1991Y6093D02*
D03*
Y4322D02*
D03*
M02*
