G04*
G04 #@! TF.GenerationSoftware,Altium Limited,Altium Designer,21.0.8 (223)*
G04*
G04 Layer_Color=32896*
%FSLAX24Y24*%
%MOIN*%
G70*
G04*
G04 #@! TF.SameCoordinates,F666B87A-DE90-4157-A89C-B26E4A6581EA*
G04*
G04*
G04 #@! TF.FilePolarity,Positive*
G04*
G01*
G75*
%ADD10C,0.0100*%
D10*
X14805Y448D02*
X24450D01*
X14805D02*
Y21314D01*
X24450D01*
Y448D02*
Y21314D01*
X3272Y20996D02*
X12328D01*
X3272Y13910D02*
Y20996D01*
Y13910D02*
X12328D01*
Y20996D01*
X38057Y14161D02*
Y18688D01*
X29199D02*
X38057D01*
X29199Y14161D02*
Y18688D01*
Y14161D02*
X38057D01*
X3346Y197D02*
Y13189D01*
Y197D02*
X13976D01*
Y13189D01*
X3346D02*
X13976D01*
X3543Y394D02*
Y12992D01*
Y394D02*
X13780D01*
Y12992D01*
X3543D02*
X13780D01*
X2362Y8465D02*
Y13189D01*
X3346D01*
Y8465D02*
Y13189D01*
X2362Y8465D02*
X3346D01*
X20250Y19350D02*
X20650D01*
Y18750D01*
X20250D01*
X20650Y19050D02*
X20450D01*
X19650Y19250D02*
X19750Y19350D01*
X19950D01*
X20050Y19250D01*
Y19150D01*
X19950Y19050D01*
X19750D01*
X19650Y18950D01*
Y18850D01*
X19750Y18750D01*
X19950D01*
X20050Y18850D01*
X19450Y18750D02*
Y19350D01*
X19150D01*
X19050Y19250D01*
Y19050D01*
X19150Y18950D01*
X19450D01*
X29349Y8300D02*
X28950D01*
X29150D01*
Y7700D01*
X28750D02*
Y8300D01*
X28450D01*
X28350Y8200D01*
Y8000D01*
X28450Y7900D01*
X28750D01*
X27850Y7700D02*
Y8300D01*
X28150Y8000D01*
X27750D01*
X27550Y8200D02*
X27450Y8300D01*
X27250D01*
X27150Y8200D01*
Y7800D01*
X27250Y7700D01*
X27450D01*
X27550Y7800D01*
Y8200D01*
X26550Y8300D02*
X26950D01*
Y8000D01*
X26750Y8100D01*
X26650D01*
X26550Y8000D01*
Y7800D01*
X26650Y7700D01*
X26850D01*
X26950Y7800D01*
X25951Y8300D02*
X26150Y8200D01*
X26350Y8000D01*
Y7800D01*
X26250Y7700D01*
X26051D01*
X25951Y7800D01*
Y7900D01*
X26051Y8000D01*
X26350D01*
X8900Y19400D02*
Y18800D01*
X8600D01*
X8500Y18900D01*
Y19000D01*
X8600Y19100D01*
X8900D01*
X8600D01*
X8500Y19200D01*
Y19300D01*
X8600Y19400D01*
X8900D01*
X8300D02*
Y18900D01*
X8200Y18800D01*
X8000D01*
X7900Y18900D01*
Y19400D01*
X7300Y19300D02*
X7400Y19400D01*
X7600D01*
X7700Y19300D01*
Y18900D01*
X7600Y18800D01*
X7400D01*
X7300Y18900D01*
X7100Y19400D02*
Y18800D01*
Y19000D01*
X6700Y19400D01*
X7000Y19100D01*
X6700Y18800D01*
X36300Y15600D02*
Y15000D01*
X36000D01*
X35900Y15100D01*
Y15200D01*
X36000Y15300D01*
X36300D01*
X36000D01*
X35900Y15400D01*
Y15500D01*
X36000Y15600D01*
X36300D01*
X35400D02*
X35600D01*
X35700Y15500D01*
Y15100D01*
X35600Y15000D01*
X35400D01*
X35300Y15100D01*
Y15500D01*
X35400Y15600D01*
X34800D02*
X35000D01*
X35100Y15500D01*
Y15100D01*
X35000Y15000D01*
X34800D01*
X34700Y15100D01*
Y15500D01*
X34800Y15600D01*
X34100Y15500D02*
X34200Y15600D01*
X34400D01*
X34500Y15500D01*
Y15400D01*
X34400Y15300D01*
X34200D01*
X34100Y15200D01*
Y15100D01*
X34200Y15000D01*
X34400D01*
X34500Y15100D01*
X33900Y15600D02*
X33500D01*
X33700D01*
Y15000D01*
X34846Y1650D02*
X34946Y1750D01*
X35146D01*
X35246Y1650D01*
Y1550D01*
X35146Y1450D01*
X34946D01*
X34846Y1350D01*
Y1250D01*
X34946Y1150D01*
X35146D01*
X35246Y1250D01*
X34646Y1750D02*
Y1150D01*
X34446Y1350D01*
X34246Y1150D01*
Y1750D01*
X9450Y9700D02*
X9850D01*
Y9100D01*
X9450D01*
X9850Y9400D02*
X9650D01*
X8850Y9600D02*
X8950Y9700D01*
X9150D01*
X9250Y9600D01*
Y9200D01*
X9150Y9100D01*
X8950D01*
X8850Y9200D01*
X8250Y9600D02*
X8350Y9700D01*
X8550D01*
X8650Y9600D01*
Y9200D01*
X8550Y9100D01*
X8350D01*
X8250Y9200D01*
Y9400D01*
X8450D01*
X37250Y5900D02*
Y6500D01*
X37050Y6300D01*
X36850Y6500D01*
Y5900D01*
X36650Y6500D02*
X36450D01*
X36550D01*
Y5900D01*
X36650D01*
X36450D01*
X35750Y6400D02*
X35850Y6500D01*
X36050D01*
X36150Y6400D01*
Y6000D01*
X36050Y5900D01*
X35850D01*
X35750Y6000D01*
X35550Y5900D02*
Y6500D01*
X35250D01*
X35150Y6400D01*
Y6200D01*
X35250Y6100D01*
X35550D01*
X35350D02*
X35150Y5900D01*
X34650Y6500D02*
X34850D01*
X34950Y6400D01*
Y6000D01*
X34850Y5900D01*
X34650D01*
X34550Y6000D01*
Y6400D01*
X34650Y6500D01*
X34050Y21500D02*
Y20900D01*
Y21200D01*
X33650D01*
Y21500D01*
Y20900D01*
X33050Y21500D02*
X33450D01*
Y20900D01*
X33050D01*
X33450Y21200D02*
X33250D01*
X32850Y20900D02*
Y21300D01*
X32650Y21500D01*
X32450Y21300D01*
Y20900D01*
Y21200D01*
X32850D01*
X32250Y20900D02*
Y21500D01*
X31950D01*
X31850Y21400D01*
Y21200D01*
X31950Y21100D01*
X32250D01*
X32050D02*
X31850Y20900D01*
X31650Y21500D02*
X31250D01*
X31450D01*
Y20900D01*
X550Y17450D02*
X450Y17550D01*
Y17750D01*
X550Y17850D01*
X650D01*
X750Y17750D01*
Y17550D01*
X850Y17450D01*
X950D01*
X1050Y17550D01*
Y17750D01*
X950Y17850D01*
X450Y16950D02*
Y17150D01*
X550Y17250D01*
X950D01*
X1050Y17150D01*
Y16950D01*
X950Y16850D01*
X550D01*
X450Y16950D01*
Y16650D02*
X1050D01*
Y16250D01*
Y16050D02*
X650D01*
X450Y15850D01*
X650Y15650D01*
X1050D01*
X750D01*
Y16050D01*
X1050Y15450D02*
X450D01*
Y15150D01*
X550Y15050D01*
X750D01*
X850Y15150D01*
Y15450D01*
Y15250D02*
X1050Y15050D01*
X1041Y3272D02*
X441D01*
Y3572D01*
X541Y3672D01*
X641D01*
X741Y3572D01*
Y3272D01*
Y3572D01*
X841Y3672D01*
X941D01*
X1041Y3572D01*
Y3272D01*
X441Y3872D02*
X841D01*
X1041Y4072D01*
X841Y4272D01*
X441D01*
X741D01*
Y3872D01*
X1041Y4472D02*
Y4872D01*
Y4672D01*
X441D01*
X1041Y5072D02*
Y5472D01*
Y5272D01*
X441D01*
X1041Y6071D02*
Y5671D01*
X441D01*
Y6071D01*
X741Y5671D02*
Y5871D01*
X441Y6271D02*
X1041D01*
Y6571D01*
X941Y6671D01*
X741D01*
X641Y6571D01*
Y6271D01*
Y6471D02*
X441Y6671D01*
X1041Y6871D02*
X941D01*
X741Y7071D01*
X941Y7271D01*
X1041D01*
X741Y7071D02*
X441D01*
X33449Y16900D02*
X33549Y17000D01*
X33749D01*
X33849Y16900D01*
Y16800D01*
X33749Y16700D01*
X33549D01*
X33449Y16600D01*
Y16500D01*
X33549Y16400D01*
X33749D01*
X33849Y16500D01*
X33250Y17000D02*
Y16400D01*
X32950D01*
X32850Y16500D01*
Y16900D01*
X32950Y17000D01*
X33250D01*
X31650Y16900D02*
X31750Y17000D01*
X31950D01*
X32050Y16900D01*
Y16500D01*
X31950Y16400D01*
X31750D01*
X31650Y16500D01*
X31450Y16400D02*
Y16800D01*
X31250Y17000D01*
X31050Y16800D01*
Y16400D01*
Y16700D01*
X31450D01*
X30850Y16400D02*
Y17000D01*
X30550D01*
X30450Y16900D01*
Y16700D01*
X30550Y16600D01*
X30850D01*
X30650D02*
X30450Y16400D01*
X30251Y17000D02*
Y16400D01*
X29951D01*
X29851Y16500D01*
Y16900D01*
X29951Y17000D01*
X30251D01*
X1481Y11800D02*
Y11400D01*
Y11600D01*
X2081D01*
X1481Y10800D02*
Y11200D01*
X2081D01*
Y10800D01*
X1781Y11200D02*
Y11000D01*
X2081Y10600D02*
X1481D01*
X1681Y10400D01*
X1481Y10200D01*
X2081D01*
Y10000D02*
X1481D01*
Y9700D01*
X1581Y9600D01*
X1781D01*
X1881Y9700D01*
Y10000D01*
M02*
