M48
;Layer_Color=9474304
;FILE_FORMAT=2:4
INCH,TZ
;TYPE=PLATED
T1F00S00C0.0100
T2F00S00C0.0150
T3F00S00C0.0335
T4F00S00C0.0394
T5F00S00C0.1181
%
T01
X22550Y16800
X22900Y17650
T02
X14650Y6897
X15267Y9047
X13150Y13900
X12500Y13500
X20850Y12100
X21777Y12016
X19600Y8550
X17250Y8000
X17050Y6550
X19750Y4550
X21850
X20700Y850
X30700Y4150
X32600Y3900
X36688Y12488
X36100Y13900
X35450Y20200
X25150Y18612
X16600Y19200
X14550Y19450
T03
X2852Y9322
Y10322
Y11322
Y12322
X4134Y12008
X5134
X6134
X7134
X8134
X9134
X10134
X11117
X12117
X13117
X11498Y14792
X4093Y14807
X18161Y15354
X19161
X20161
X21161
X29916Y14740
X29992Y9704
X31177Y9703
X26696Y9708
X25516Y9709
X25505Y608
X31176Y608
X32253Y2836
X33533
X34714
X35895
X37174
X36048Y4839
X35039Y4830
X34050Y4837
X34040Y7774
X35039Y7769
X36046Y7767
X37357Y14740
X37350Y16300
X34583Y20106
X33583
X33601Y19211
X32602Y19216
X32583Y20106
X31583
X31599Y19209
X30601Y19212
X30583Y20106
X29601Y19212
X28601Y19217
X29932Y18128
X11495Y19088
X11500Y20109
X11503Y15813
X4098Y15828
X4090Y19103
X4095Y20124
T04
X15700Y3550
Y4550
Y5550
Y6550
Y7550
Y8550
Y9550
Y10550
Y11550
Y12550
Y13550
Y14550
Y15550
X23700Y15550
Y14550
Y13550
Y12550
Y11550
Y10550
Y9550
Y8550
Y7550
Y16550
Y17550
Y18550
X15700Y18550
Y17550
Y16550
T05
X1772Y1969
X38189Y1575
X37598Y20079
X1772
M30
