G04*
G04 #@! TF.GenerationSoftware,Altium Limited,Altium Designer,21.0.8 (223)*
G04*
G04 Layer_Color=128*
%FSLAX24Y24*%
%MOIN*%
G70*
G04*
G04 #@! TF.SameCoordinates,F666B87A-DE90-4157-A89C-B26E4A6581EA*
G04*
G04*
G04 #@! TF.FilePolarity,Positive*
G04*
G01*
G75*
%ADD31C,0.0020*%
D31*
X1181Y20079D02*
X2362D01*
X1772Y19488D02*
Y20669D01*
X1181Y1969D02*
X2362D01*
X1772Y1378D02*
Y2559D01*
X37008Y20079D02*
X38189D01*
X37598Y19488D02*
Y20669D01*
Y1575D02*
X38780D01*
X38189Y984D02*
Y2165D01*
X15503Y18550D02*
X15897D01*
X15700Y18353D02*
Y18747D01*
X15503Y17550D02*
X15897D01*
X15700Y17353D02*
Y17747D01*
X15503Y16550D02*
X15897D01*
X15700Y16353D02*
Y16747D01*
X15503Y15550D02*
X15897D01*
X15700Y15353D02*
Y15747D01*
X15503Y14550D02*
X15897D01*
X15700Y14353D02*
Y14747D01*
X15503Y13550D02*
X15897D01*
X15700Y13353D02*
Y13747D01*
X15503Y12550D02*
X15897D01*
X15700Y12353D02*
Y12747D01*
X15503Y11550D02*
X15897D01*
X15700Y11353D02*
Y11747D01*
X15503Y10550D02*
X15897D01*
X15700Y10353D02*
Y10747D01*
X15503Y9550D02*
X15897D01*
X15700Y9353D02*
Y9747D01*
X15503Y8550D02*
X15897D01*
X15700Y8353D02*
Y8747D01*
X15503Y7550D02*
X15897D01*
X15700Y7353D02*
Y7747D01*
X15503Y6550D02*
X15897D01*
X15700Y6353D02*
Y6747D01*
X15503Y5550D02*
X15897D01*
X15700Y5353D02*
Y5747D01*
X15503Y4550D02*
X15897D01*
X15700Y4353D02*
Y4747D01*
X15503Y3550D02*
X15897D01*
X15700Y3353D02*
Y3747D01*
X23503Y7550D02*
X23897D01*
X23700Y7353D02*
Y7747D01*
X23503Y8550D02*
X23897D01*
X23700Y8353D02*
Y8747D01*
X23503Y9550D02*
X23897D01*
X23700Y9353D02*
Y9747D01*
X23503Y10550D02*
X23897D01*
X23700Y10353D02*
Y10747D01*
X23503Y11550D02*
X23897D01*
X23700Y11353D02*
Y11747D01*
X23503Y12550D02*
X23897D01*
X23700Y12353D02*
Y12747D01*
X23503Y13550D02*
X23897D01*
X23700Y13353D02*
Y13747D01*
X23503Y14550D02*
X23897D01*
X23700Y14353D02*
Y14747D01*
X23503Y15550D02*
X23897D01*
X23700Y15353D02*
Y15747D01*
X23503Y16550D02*
X23897D01*
X23700Y16353D02*
Y16747D01*
X23503Y17550D02*
X23897D01*
X23700Y17353D02*
Y17747D01*
X23503Y18550D02*
X23897D01*
X23700Y18353D02*
Y18747D01*
X20994Y15354D02*
X21329D01*
X21161Y15187D02*
Y15522D01*
X19994Y15354D02*
X20329D01*
X20161Y15187D02*
Y15522D01*
X18994Y15354D02*
X19329D01*
X19161Y15187D02*
Y15522D01*
X17994Y15354D02*
X18329D01*
X18161Y15187D02*
Y15522D01*
X33434Y19211D02*
X33768D01*
X33601Y19044D02*
Y19379D01*
X32435Y19216D02*
X32769D01*
X32602Y19048D02*
Y19383D01*
X31432Y19209D02*
X31767D01*
X31599Y19042D02*
Y19377D01*
X30433Y19212D02*
X30768D01*
X30601Y19045D02*
Y19380D01*
X29433Y19212D02*
X29768D01*
X29601Y19044D02*
Y19379D01*
X28434Y19217D02*
X28768D01*
X28601Y19049D02*
Y19384D01*
X3926Y14807D02*
X4260D01*
X4093Y14640D02*
Y14975D01*
X3930Y15828D02*
X4265D01*
X4098Y15661D02*
Y15996D01*
X3923Y19103D02*
X4257D01*
X4090Y18936D02*
Y19270D01*
X3927Y20124D02*
X4262D01*
X4095Y19957D02*
Y20291D01*
X11331Y14792D02*
X11666D01*
X11498Y14625D02*
Y14960D01*
X11336Y15813D02*
X11670D01*
X11503Y15646D02*
Y15981D01*
X11328Y19088D02*
X11663D01*
X11495Y18921D02*
Y19255D01*
X11333Y20109D02*
X11667D01*
X11500Y19942D02*
Y20276D01*
X31008Y608D02*
X31343D01*
X31176Y441D02*
Y776D01*
X25338Y608D02*
X25673D01*
X25505Y440D02*
Y775D01*
X31009Y9703D02*
X31344D01*
X31177Y9536D02*
Y9871D01*
X29825Y9704D02*
X30159D01*
X29992Y9536D02*
Y9871D01*
X26529Y9708D02*
X26863D01*
X26696Y9541D02*
Y9876D01*
X25349Y9709D02*
X25684D01*
X25516Y9542D02*
Y9876D01*
X34416Y20106D02*
X34751D01*
X34583Y19939D02*
Y20273D01*
X33416Y20106D02*
X33751D01*
X33583Y19939D02*
Y20273D01*
X32416Y20106D02*
X32751D01*
X32583Y19939D02*
Y20273D01*
X31416Y20106D02*
X31751D01*
X31583Y19939D02*
Y20273D01*
X30416Y20106D02*
X30751D01*
X30583Y19939D02*
Y20273D01*
X37190Y14740D02*
X37525D01*
X37357Y14573D02*
Y14907D01*
X37183Y16300D02*
X37517D01*
X37350Y16133D02*
Y16467D01*
X29749Y14740D02*
X30083D01*
X29916Y14573D02*
Y14907D01*
X29765Y18128D02*
X30099D01*
X29932Y17961D02*
Y18296D01*
X3967Y12008D02*
X4301D01*
X4134Y11841D02*
Y12175D01*
X4967Y12008D02*
X5301D01*
X5134Y11841D02*
Y12175D01*
X5967Y12008D02*
X6301D01*
X6134Y11841D02*
Y12175D01*
X6967Y12008D02*
X7301D01*
X7134Y11841D02*
Y12175D01*
X7967Y12008D02*
X8301D01*
X8134Y11841D02*
Y12175D01*
X9967Y12008D02*
X10301D01*
X10134Y11841D02*
Y12175D01*
X10950Y12008D02*
X11285D01*
X11117Y11841D02*
Y12175D01*
X11950Y12008D02*
X12285D01*
X12117Y11841D02*
Y12175D01*
X12950Y12008D02*
X13285D01*
X13117Y11841D02*
Y12175D01*
X8967Y12008D02*
X9301D01*
X9134Y11841D02*
Y12175D01*
X37007Y2836D02*
X37342D01*
X37174Y2668D02*
Y3003D01*
X32086Y2836D02*
X32421D01*
X32253Y2668D02*
Y3003D01*
X33365Y2836D02*
X33700D01*
X33533Y2668D02*
Y3003D01*
X34547Y2836D02*
X34881D01*
X34714Y2668D02*
Y3003D01*
X35728Y2836D02*
X36062D01*
X35895Y2668D02*
Y3003D01*
X34872Y7769D02*
X35207D01*
X35039Y7602D02*
Y7936D01*
X33873Y7774D02*
X34208D01*
X34040Y7606D02*
Y7941D01*
X35879Y7767D02*
X36214D01*
X36046Y7600D02*
Y7934D01*
X33883Y4837D02*
X34217D01*
X34050Y4669D02*
Y5004D01*
X35881Y4839D02*
X36215D01*
X36048Y4672D02*
Y5007D01*
X34872Y4830D02*
X35207D01*
X35039Y4662D02*
Y4997D01*
X2684Y12322D02*
X3019D01*
X2852Y12154D02*
Y12489D01*
X2684Y11322D02*
X3019D01*
X2852Y11154D02*
Y11489D01*
X2684Y10322D02*
X3019D01*
X2852Y10154D02*
Y10489D01*
X2684Y9322D02*
X3019D01*
X2852Y9154D02*
Y9489D01*
X22850Y17650D02*
X22950D01*
X22900Y17600D02*
Y17700D01*
X22500Y16800D02*
X22600D01*
X22550Y16750D02*
Y16850D01*
X17175Y8000D02*
X17325D01*
X17250Y7925D02*
Y8075D01*
X16975Y6550D02*
X17125D01*
X17050Y6475D02*
Y6625D01*
X19525Y8550D02*
X19675D01*
X19600Y8475D02*
Y8625D01*
X12425Y13500D02*
X12575D01*
X12500Y13425D02*
Y13575D01*
X14575Y6897D02*
X14725D01*
X14650Y6822D02*
Y6972D01*
X19675Y4550D02*
X19825D01*
X19750Y4475D02*
Y4625D01*
X13075Y13900D02*
X13225D01*
X13150Y13825D02*
Y13975D01*
X14475Y19450D02*
X14625D01*
X14550Y19375D02*
Y19525D01*
X16525Y19200D02*
X16675D01*
X16600Y19125D02*
Y19275D01*
X21775Y4550D02*
X21925D01*
X21850Y4475D02*
Y4625D01*
X15192Y9047D02*
X15342D01*
X15267Y8972D02*
Y9122D01*
X21702Y12016D02*
X21852D01*
X21777Y11941D02*
Y12091D01*
X30625Y4150D02*
X30775D01*
X30700Y4075D02*
Y4225D01*
X25075Y18612D02*
X25225D01*
X25150Y18537D02*
Y18687D01*
X32525Y3900D02*
X32675D01*
X32600Y3825D02*
Y3975D01*
X35375Y20200D02*
X35525D01*
X35450Y20125D02*
Y20275D01*
X36613Y12488D02*
X36763D01*
X36688Y12413D02*
Y12563D01*
X20625Y850D02*
X20775D01*
X20700Y775D02*
Y925D01*
X36025Y13900D02*
X36175D01*
X36100Y13825D02*
Y13975D01*
X20775Y12100D02*
X20925D01*
X20850Y12025D02*
Y12175D01*
M02*
