G04*
G04 #@! TF.GenerationSoftware,Altium Limited,Altium Designer,21.0.8 (223)*
G04*
G04 Layer_Physical_Order=2*
G04 Layer_Color=16711680*
%FSLAX24Y24*%
%MOIN*%
G70*
G04*
G04 #@! TF.SameCoordinates,F666B87A-DE90-4157-A89C-B26E4A6581EA*
G04*
G04*
G04 #@! TF.FilePolarity,Positive*
G04*
G01*
G75*
%ADD20C,0.0200*%
%ADD21C,0.0300*%
%ADD23C,0.1181*%
%ADD24R,0.0594X0.0594*%
%ADD25C,0.0594*%
%ADD26C,0.0600*%
%ADD27C,0.0200*%
%ADD28C,0.0250*%
G04:AMPARAMS|DCode=29|XSize=78.7mil|YSize=118.1mil|CornerRadius=19.7mil|HoleSize=0mil|Usage=FLASHONLY|Rotation=270.000|XOffset=0mil|YOffset=0mil|HoleType=Round|Shape=RoundedRectangle|*
%AMROUNDEDRECTD29*
21,1,0.0787,0.0787,0,0,270.0*
21,1,0.0394,0.1181,0,0,270.0*
1,1,0.0394,-0.0394,-0.0197*
1,1,0.0394,-0.0394,0.0197*
1,1,0.0394,0.0394,0.0197*
1,1,0.0394,0.0394,-0.0197*
%
%ADD29ROUNDEDRECTD29*%
G36*
X38456Y21392D02*
X38611Y21344D01*
X38755Y21268D01*
X38881Y21164D01*
X38984Y21038D01*
X39061Y20895D01*
X39108Y20739D01*
X39124Y20577D01*
X39116Y20497D01*
X39116D01*
X39115Y20472D01*
X39115Y20448D01*
Y2394D01*
X39065Y2373D01*
X38960Y2478D01*
X38810Y2588D01*
X38644Y2672D01*
X38466Y2730D01*
X38282Y2759D01*
X38096D01*
X37912Y2730D01*
X37734Y2672D01*
X37695Y2652D01*
X37652Y2686D01*
X37674Y2770D01*
Y2902D01*
X37640Y3029D01*
X37575Y3143D01*
X37481Y3236D01*
X37367Y3302D01*
X37240Y3336D01*
X37109D01*
X36981Y3302D01*
X36926Y3270D01*
X36883Y3295D01*
Y3515D01*
X38564Y5196D01*
X38564Y5196D01*
X38612Y5259D01*
X38642Y5332D01*
X38653Y5410D01*
Y16950D01*
X38653Y16950D01*
X38642Y17028D01*
X38612Y17101D01*
X38564Y17164D01*
X37044Y18683D01*
X36982Y18732D01*
X36909Y18762D01*
X36830Y18772D01*
X33934D01*
X33919Y18822D01*
X34001Y18904D01*
X34067Y19018D01*
X34101Y19146D01*
Y19277D01*
X34067Y19404D01*
X34001Y19518D01*
X33908Y19611D01*
X33861Y19639D01*
Y19689D01*
X33890Y19706D01*
X33984Y19799D01*
X34049Y19913D01*
X34058Y19947D01*
X34108D01*
X34118Y19913D01*
X34183Y19799D01*
X34276Y19706D01*
X34390Y19640D01*
X34518Y19606D01*
X34649D01*
X34776Y19640D01*
X34890Y19706D01*
X34984Y19799D01*
X35049Y19913D01*
X35083Y20040D01*
X35133Y20050D01*
X35144Y20023D01*
X35200Y19950D01*
X35273Y19894D01*
X35359Y19859D01*
X35450Y19847D01*
X35541Y19859D01*
X35627Y19894D01*
X35700Y19950D01*
X35756Y20023D01*
X35791Y20109D01*
X35803Y20200D01*
Y21000D01*
X35791Y21091D01*
X35756Y21177D01*
X35700Y21250D01*
X35597Y21352D01*
X35616Y21399D01*
X38189D01*
X38214Y21400D01*
X38214Y21400D01*
X38293Y21408D01*
X38456Y21392D01*
D02*
G37*
G36*
X35097Y20854D02*
Y20329D01*
X35091Y20325D01*
X35024Y20343D01*
X34984Y20413D01*
X34890Y20506D01*
X34776Y20572D01*
X34649Y20606D01*
X34518D01*
X34390Y20572D01*
X34276Y20506D01*
X34183Y20413D01*
X34118Y20299D01*
X34108Y20265D01*
X34058D01*
X34049Y20299D01*
X33984Y20413D01*
X33890Y20506D01*
X33776Y20572D01*
X33649Y20606D01*
X33518D01*
X33390Y20572D01*
X33276Y20506D01*
X33183Y20413D01*
X33118Y20299D01*
X33108Y20265D01*
X33058D01*
X33049Y20299D01*
X32984Y20413D01*
X32890Y20506D01*
X32776Y20572D01*
X32649Y20606D01*
X32518D01*
X32482Y20596D01*
X32227Y20851D01*
X32246Y20897D01*
X35054D01*
X35097Y20854D01*
D02*
G37*
G36*
X30222Y20451D02*
X30183Y20413D01*
X30118Y20299D01*
X30083Y20172D01*
Y20040D01*
X30118Y19913D01*
X30183Y19799D01*
X30276Y19706D01*
X30323Y19679D01*
Y19629D01*
X30294Y19612D01*
X30201Y19519D01*
X30135Y19405D01*
X30126Y19374D01*
X30075D01*
X30066Y19405D01*
X30001Y19519D01*
X29908Y19612D01*
X29794Y19678D01*
X29666Y19712D01*
X29535D01*
X29530Y19710D01*
X29076Y20164D01*
X29014Y20212D01*
X28941Y20242D01*
X28862Y20253D01*
X15800D01*
X15722Y20242D01*
X15649Y20212D01*
X15586Y20164D01*
X15586Y20164D01*
X14923Y19501D01*
X14868Y19517D01*
X14853Y19575D01*
X14810Y19650D01*
X14750Y19710D01*
X14675Y19753D01*
X14593Y19775D01*
X14507D01*
X14425Y19753D01*
X14350Y19710D01*
X14290Y19650D01*
X14247Y19575D01*
X14247Y19575D01*
X14036Y19364D01*
X13988Y19301D01*
X13958Y19228D01*
X13947Y19150D01*
Y17500D01*
X13958Y17422D01*
X13988Y17349D01*
X14036Y17286D01*
X14497Y16825D01*
Y15567D01*
X14451Y15548D01*
X11853Y18146D01*
Y18738D01*
X11896Y18781D01*
X11961Y18895D01*
X11995Y19022D01*
Y19154D01*
X11961Y19281D01*
X11896Y19395D01*
X11851Y19440D01*
Y19753D01*
X11900Y19802D01*
X11966Y19916D01*
X12000Y20043D01*
Y20175D01*
X11966Y20302D01*
X11900Y20416D01*
X11865Y20451D01*
X11884Y20497D01*
X30203D01*
X30222Y20451D01*
D02*
G37*
G36*
X29135Y19019D02*
X29200Y18905D01*
X29294Y18812D01*
X29343Y18783D01*
X29349Y18734D01*
X29190Y18574D01*
X29168Y18546D01*
X24244Y13622D01*
X24190Y13639D01*
X24163Y13742D01*
X24098Y13855D01*
X24005Y13947D01*
X23892Y14013D01*
X23850Y14024D01*
Y14076D01*
X23892Y14087D01*
X24005Y14152D01*
X24098Y14245D01*
X24163Y14358D01*
X24197Y14484D01*
Y14615D01*
X24163Y14742D01*
X24098Y14855D01*
X24005Y14947D01*
X23892Y15013D01*
X23850Y15024D01*
Y15076D01*
X23892Y15087D01*
X24005Y15152D01*
X24098Y15245D01*
X24163Y15358D01*
X24197Y15484D01*
Y15615D01*
X24163Y15742D01*
X24098Y15855D01*
X24005Y15947D01*
X23892Y16013D01*
X23850Y16024D01*
Y16076D01*
X23892Y16087D01*
X24005Y16152D01*
X24098Y16245D01*
X24163Y16358D01*
X24197Y16484D01*
Y16615D01*
X24163Y16742D01*
X24098Y16855D01*
X24005Y16947D01*
X23892Y17013D01*
X23850Y17024D01*
Y17076D01*
X23892Y17087D01*
X24005Y17152D01*
X24098Y17245D01*
X24099Y17247D01*
X24900D01*
X24978Y17258D01*
X25051Y17288D01*
X25114Y17336D01*
X25364Y17586D01*
X25364Y17586D01*
X25412Y17649D01*
X25442Y17722D01*
X25453Y17800D01*
Y18487D01*
X25453Y18487D01*
X25475Y18570D01*
Y18655D01*
X25453Y18738D01*
X25419Y18797D01*
X25440Y18847D01*
X28264D01*
X28294Y18816D01*
X28408Y18751D01*
X28535Y18717D01*
X28667D01*
X28794Y18751D01*
X28908Y18816D01*
X29001Y18910D01*
X29067Y19024D01*
X29074Y19051D01*
X29126D01*
X29135Y19019D01*
D02*
G37*
G36*
X24881Y18797D02*
X24847Y18738D01*
X24825Y18655D01*
Y18570D01*
X24847Y18487D01*
X24847Y18487D01*
Y17925D01*
X24775Y17853D01*
X24099D01*
X24098Y17855D01*
X24005Y17947D01*
X23892Y18013D01*
X23850Y18024D01*
Y18076D01*
X23892Y18087D01*
X24005Y18152D01*
X24098Y18245D01*
X24163Y18358D01*
X24197Y18484D01*
Y18615D01*
X24163Y18742D01*
X24127Y18804D01*
X24152Y18847D01*
X24860D01*
X24881Y18797D01*
D02*
G37*
G36*
X3747Y18724D02*
Y18596D01*
X2621Y17471D01*
X2562Y17474D01*
X2536Y17508D01*
X2453Y17572D01*
X2357Y17612D01*
X2253Y17626D01*
X1466D01*
X1362Y17612D01*
X1265Y17572D01*
X1183Y17508D01*
X1119Y17425D01*
X1103Y17387D01*
X1053Y17397D01*
Y17454D01*
X1396Y17797D01*
X2550D01*
X2641Y17809D01*
X2727Y17844D01*
X2800Y17900D01*
X3650Y18750D01*
X3656Y18759D01*
X3707Y18762D01*
X3747Y18724D01*
D02*
G37*
G36*
X14774Y19182D02*
X14797Y19172D01*
Y17446D01*
X14751Y17427D01*
X14553Y17625D01*
Y19025D01*
X14675Y19147D01*
X14675Y19147D01*
X14747Y19189D01*
X14774Y19182D01*
D02*
G37*
G36*
X6123Y20851D02*
X4786Y19514D01*
X4738Y19451D01*
X4708Y19378D01*
X4697Y19300D01*
Y13825D01*
X3367Y12495D01*
X3319Y12508D01*
X3317Y12515D01*
X3252Y12629D01*
X3159Y12722D01*
X3045Y12788D01*
X2917Y12822D01*
X2786D01*
X2659Y12788D01*
X2545Y12722D01*
X2451Y12629D01*
X2386Y12515D01*
X2352Y12387D01*
Y12256D01*
X2386Y12129D01*
X2451Y12015D01*
X2545Y11922D01*
X2659Y11856D01*
X2664Y11805D01*
X2659Y11788D01*
X2545Y11722D01*
X2451Y11629D01*
X2403Y11545D01*
X2353Y11558D01*
Y11606D01*
X2341Y11697D01*
X2306Y11782D01*
X2250Y11856D01*
X1053Y13052D01*
Y14888D01*
X1103Y14898D01*
X1119Y14860D01*
X1183Y14777D01*
X1265Y14713D01*
X1362Y14673D01*
X1466Y14660D01*
X2179D01*
X2281Y14558D01*
X2354Y14502D01*
X2440Y14466D01*
X2531Y14454D01*
X3739D01*
X3786Y14407D01*
X3900Y14341D01*
X4027Y14307D01*
X4159D01*
X4286Y14341D01*
X4400Y14407D01*
X4493Y14500D01*
X4559Y14614D01*
X4593Y14741D01*
Y14873D01*
X4559Y15000D01*
X4493Y15114D01*
X4448Y15159D01*
Y15472D01*
X4498Y15521D01*
X4564Y15635D01*
X4598Y15763D01*
Y15894D01*
X4564Y16021D01*
X4498Y16135D01*
X4405Y16228D01*
X4291Y16294D01*
X4163Y16328D01*
X4032D01*
X3905Y16294D01*
X3791Y16228D01*
X3697Y16135D01*
X3632Y16021D01*
X3598Y15894D01*
Y15763D01*
X3632Y15635D01*
X3697Y15521D01*
X3742Y15477D01*
Y15164D01*
X3739Y15160D01*
X2677D01*
X2653Y15184D01*
Y15454D01*
X2640Y15557D01*
X2600Y15654D01*
X2536Y15737D01*
X2453Y15800D01*
X2357Y15840D01*
X2253Y15854D01*
X1466D01*
X1362Y15840D01*
X1265Y15800D01*
X1183Y15737D01*
X1119Y15654D01*
X1103Y15615D01*
X1053Y15625D01*
Y16660D01*
X1103Y16670D01*
X1119Y16631D01*
X1183Y16549D01*
X1265Y16485D01*
X1362Y16445D01*
X1466Y16431D01*
X2253D01*
X2357Y16445D01*
X2453Y16485D01*
X2536Y16549D01*
X2600Y16631D01*
X2640Y16728D01*
X2642Y16747D01*
X2750D01*
X2841Y16759D01*
X2927Y16794D01*
X3000Y16850D01*
X4350Y18200D01*
X4406Y18273D01*
X4441Y18359D01*
X4453Y18450D01*
Y18759D01*
X4490Y18796D01*
X4556Y18910D01*
X4590Y19037D01*
Y19169D01*
X4556Y19296D01*
X4490Y19410D01*
X4445Y19455D01*
Y19768D01*
X4495Y19817D01*
X4561Y19931D01*
X4595Y20058D01*
Y20190D01*
X4561Y20317D01*
X4495Y20431D01*
X4402Y20524D01*
X4288Y20590D01*
X4160Y20624D01*
X4094D01*
X4073Y20674D01*
X4296Y20897D01*
X6104D01*
X6123Y20851D01*
D02*
G37*
G36*
X11135Y20451D02*
X11100Y20416D01*
X11034Y20302D01*
X11000Y20175D01*
Y20043D01*
X11034Y19916D01*
X11100Y19802D01*
X11145Y19757D01*
Y19444D01*
X11095Y19395D01*
X11030Y19281D01*
X10995Y19154D01*
Y19022D01*
X11030Y18895D01*
X11095Y18781D01*
X11147Y18729D01*
Y18000D01*
X11159Y17909D01*
X11194Y17823D01*
X11250Y17750D01*
X13897Y15104D01*
Y14668D01*
X13851Y14648D01*
X13457Y15042D01*
X13384Y15098D01*
X13299Y15133D01*
X13208Y15145D01*
X11854D01*
Y15457D01*
X11903Y15506D01*
X11969Y15620D01*
X12003Y15748D01*
Y15879D01*
X11969Y16006D01*
X11903Y16120D01*
X11810Y16214D01*
X11696Y16279D01*
X11569Y16313D01*
X11437D01*
X11310Y16279D01*
X11196Y16214D01*
X11103Y16120D01*
X11037Y16006D01*
X11003Y15879D01*
Y15748D01*
X11037Y15620D01*
X11103Y15506D01*
X11148Y15462D01*
Y15149D01*
X11098Y15099D01*
X11033Y14985D01*
X10998Y14858D01*
Y14727D01*
X11033Y14599D01*
X11098Y14485D01*
X11191Y14392D01*
X11305Y14326D01*
X11433Y14292D01*
X11564D01*
X11691Y14326D01*
X11805Y14392D01*
X11853Y14439D01*
X13061D01*
X13235Y14265D01*
X13210Y14221D01*
X13193Y14225D01*
X13107D01*
X13025Y14203D01*
X12950Y14160D01*
X12890Y14100D01*
X12847Y14025D01*
X12825Y13943D01*
Y13857D01*
X12847Y13775D01*
X12847Y13774D01*
Y13643D01*
X12839Y13640D01*
X12797Y13635D01*
X12760Y13700D01*
X12700Y13760D01*
X12625Y13803D01*
X12543Y13825D01*
X12457D01*
X12375Y13803D01*
X12374Y13803D01*
X12234D01*
X12156Y13792D01*
X12083Y13762D01*
X12021Y13714D01*
X12021Y13714D01*
X11903Y13597D01*
X11855Y13534D01*
X11825Y13461D01*
X11815Y13383D01*
Y12411D01*
X11810Y12408D01*
X11717Y12315D01*
X11651Y12201D01*
X11642Y12167D01*
X11592D01*
X11583Y12201D01*
X11517Y12315D01*
X11424Y12408D01*
X11310Y12474D01*
X11183Y12508D01*
X11051D01*
X10924Y12474D01*
X10810Y12408D01*
X10717Y12315D01*
X10652Y12201D01*
X10639Y12198D01*
X10612D01*
X10600Y12201D01*
X10534Y12315D01*
X10441Y12408D01*
X10327Y12474D01*
X10200Y12508D01*
X10068D01*
X9941Y12474D01*
X9827Y12408D01*
X9734Y12315D01*
X9668Y12201D01*
X9659Y12167D01*
X9609D01*
X9600Y12201D01*
X9534Y12315D01*
X9441Y12408D01*
X9327Y12474D01*
X9200Y12508D01*
X9068D01*
X8941Y12474D01*
X8827Y12408D01*
X8734Y12315D01*
X8668Y12201D01*
X8659Y12167D01*
X8609D01*
X8600Y12201D01*
X8534Y12315D01*
X8441Y12408D01*
X8327Y12474D01*
X8200Y12508D01*
X8068D01*
X7941Y12474D01*
X7827Y12408D01*
X7734Y12315D01*
X7668Y12201D01*
X7659Y12167D01*
X7609D01*
X7600Y12201D01*
X7534Y12315D01*
X7441Y12408D01*
X7327Y12474D01*
X7200Y12508D01*
X7068D01*
X6941Y12474D01*
X6827Y12408D01*
X6734Y12315D01*
X6668Y12201D01*
X6659Y12167D01*
X6609D01*
X6600Y12201D01*
X6534Y12315D01*
X6441Y12408D01*
X6327Y12474D01*
X6200Y12508D01*
X6068D01*
X5941Y12474D01*
X5827Y12408D01*
X5734Y12315D01*
X5668Y12201D01*
X5659Y12167D01*
X5609D01*
X5600Y12201D01*
X5534Y12315D01*
X5441Y12408D01*
X5327Y12474D01*
X5200Y12508D01*
X5068D01*
X4941Y12474D01*
X4827Y12408D01*
X4734Y12315D01*
X4668Y12201D01*
X4659Y12167D01*
X4609D01*
X4600Y12201D01*
X4534Y12315D01*
X4441Y12408D01*
X4327Y12474D01*
X4276Y12487D01*
X4264Y12536D01*
X5214Y13486D01*
X5262Y13549D01*
X5292Y13622D01*
X5303Y13700D01*
Y19175D01*
X6625Y20497D01*
X11116D01*
X11135Y20451D01*
D02*
G37*
G36*
X29473Y17924D02*
X29532Y17821D01*
X29625Y17728D01*
X29739Y17662D01*
X29766Y17655D01*
X29779Y17607D01*
X24525Y12353D01*
X24213D01*
X24175Y12403D01*
X24197Y12484D01*
Y12615D01*
X24173Y12704D01*
X24175Y12749D01*
X24206Y12767D01*
X24248Y12785D01*
X24311Y12833D01*
X29419Y17941D01*
X29473Y17924D01*
D02*
G37*
G36*
X12839Y13360D02*
X12847Y13357D01*
Y12429D01*
X12810Y12408D01*
X12717Y12315D01*
X12651Y12201D01*
X12642Y12167D01*
X12592D01*
X12583Y12201D01*
X12517Y12315D01*
X12424Y12408D01*
X12420Y12411D01*
Y13146D01*
X12457Y13175D01*
X12543D01*
X12625Y13197D01*
X12700Y13240D01*
X12760Y13300D01*
X12797Y13365D01*
X12839Y13360D01*
D02*
G37*
G36*
X23203Y14555D02*
Y14484D01*
X23237Y14358D01*
X23302Y14245D01*
X23395Y14152D01*
X23508Y14087D01*
X23550Y14076D01*
Y14024D01*
X23508Y14013D01*
X23395Y13947D01*
X23302Y13855D01*
X23237Y13742D01*
X23203Y13615D01*
Y13484D01*
X23237Y13358D01*
X23289Y13268D01*
X23280Y13261D01*
X22132Y12113D01*
X22084Y12126D01*
X22080Y12141D01*
X22080Y12142D01*
Y12472D01*
X22112Y12515D01*
X22142Y12588D01*
X22153Y12666D01*
Y13575D01*
X23153Y14575D01*
X23203Y14555D01*
D02*
G37*
G36*
X3654Y11865D02*
X3668Y11815D01*
X3734Y11701D01*
X3797Y11638D01*
Y10746D01*
X3725Y10675D01*
X3206D01*
X3159Y10722D01*
X3045Y10788D01*
X3011Y10797D01*
Y10847D01*
X3045Y10856D01*
X3159Y10922D01*
X3252Y11015D01*
X3317Y11129D01*
X3352Y11256D01*
Y11387D01*
X3317Y11515D01*
X3290Y11562D01*
X3606Y11878D01*
X3654Y11865D01*
D02*
G37*
G36*
X28275Y19597D02*
X28230Y19553D01*
X16600D01*
X16509Y19541D01*
X16423Y19506D01*
X16350Y19450D01*
X16294Y19377D01*
X16259Y19291D01*
X16247Y19200D01*
X16259Y19109D01*
X16294Y19023D01*
X16350Y18950D01*
X16423Y18894D01*
X16509Y18859D01*
X16600Y18847D01*
X23248D01*
X23273Y18804D01*
X23237Y18742D01*
X23203Y18615D01*
Y18484D01*
X23214Y18442D01*
X22686Y17914D01*
X22638Y17851D01*
X22608Y17778D01*
X22597Y17700D01*
Y17650D01*
X22600Y17630D01*
Y17610D01*
X22605Y17591D01*
X22608Y17572D01*
X22615Y17553D01*
X22620Y17534D01*
X22630Y17517D01*
X22636Y17503D01*
X22631Y17487D01*
X22611Y17453D01*
X22610Y17453D01*
X21957D01*
X21879Y17442D01*
X21806Y17412D01*
X21743Y17364D01*
X21743Y17364D01*
X20232Y15853D01*
X20227Y15854D01*
X20096D01*
X19968Y15820D01*
X19854Y15754D01*
X19761Y15661D01*
X19695Y15547D01*
X19686Y15513D01*
X19636D01*
X19627Y15547D01*
X19562Y15661D01*
X19468Y15754D01*
X19354Y15820D01*
X19227Y15854D01*
X19096D01*
X18968Y15820D01*
X18854Y15754D01*
X18761Y15661D01*
X18695Y15547D01*
X18686Y15513D01*
X18636D01*
X18627Y15547D01*
X18562Y15661D01*
X18468Y15754D01*
X18354Y15820D01*
X18227Y15854D01*
X18096D01*
X17968Y15820D01*
X17854Y15754D01*
X17761Y15661D01*
X17695Y15547D01*
X17661Y15420D01*
Y15289D01*
X17695Y15161D01*
X17761Y15047D01*
X17854Y14954D01*
X17968Y14888D01*
X18096Y14854D01*
X18227D01*
X18354Y14888D01*
X18468Y14954D01*
X18562Y15047D01*
X18627Y15161D01*
X18636Y15195D01*
X18686D01*
X18695Y15161D01*
X18761Y15047D01*
X18854Y14954D01*
X18968Y14888D01*
X19096Y14854D01*
X19227D01*
X19354Y14888D01*
X19468Y14954D01*
X19562Y15047D01*
X19627Y15161D01*
X19636Y15195D01*
X19686D01*
X19695Y15161D01*
X19761Y15047D01*
X19854Y14954D01*
X19968Y14888D01*
X20096Y14854D01*
X20227D01*
X20354Y14888D01*
X20468Y14954D01*
X20562Y15047D01*
X20627Y15161D01*
X20636Y15195D01*
X20686D01*
X20695Y15161D01*
X20761Y15047D01*
X20854Y14954D01*
X20968Y14888D01*
X21096Y14854D01*
X21227D01*
X21354Y14888D01*
X21468Y14954D01*
X21562Y15047D01*
X21627Y15161D01*
X21661Y15289D01*
Y15420D01*
X21648Y15470D01*
X22764Y16586D01*
X22776Y16602D01*
X22790Y16616D01*
X22800Y16633D01*
X22812Y16649D01*
X22820Y16667D01*
X22830Y16684D01*
X22835Y16703D01*
X22842Y16722D01*
X22845Y16741D01*
X22850Y16760D01*
Y16780D01*
X22853Y16800D01*
X22887Y16847D01*
X23248D01*
X23273Y16804D01*
X23237Y16742D01*
X23203Y16615D01*
Y16484D01*
X23204Y16482D01*
X20636Y13914D01*
X20588Y13851D01*
X20558Y13778D01*
X20547Y13700D01*
Y12226D01*
X20547Y12225D01*
X20525Y12143D01*
Y12057D01*
X20547Y11975D01*
X20590Y11900D01*
X20650Y11840D01*
X20725Y11797D01*
X20807Y11775D01*
X20893D01*
X20975Y11797D01*
X21050Y11840D01*
X21110Y11900D01*
X21153Y11975D01*
X21175Y12057D01*
Y12143D01*
X21153Y12225D01*
X21153Y12226D01*
Y13575D01*
X23153Y15575D01*
X23203Y15555D01*
Y15484D01*
X23204Y15482D01*
X21636Y13914D01*
X21588Y13851D01*
X21558Y13778D01*
X21547Y13700D01*
Y12786D01*
X21515Y12744D01*
X21485Y12671D01*
X21474Y12593D01*
Y12142D01*
X21474Y12141D01*
X21452Y12059D01*
Y11973D01*
X21474Y11890D01*
X21517Y11816D01*
X21577Y11756D01*
X21652Y11713D01*
X21667Y11709D01*
X21680Y11661D01*
X19372Y9353D01*
X16213D01*
X16175Y9403D01*
X16197Y9485D01*
Y9615D01*
X16163Y9742D01*
X16098Y9855D01*
X16005Y9948D01*
X15892Y10013D01*
X15850Y10024D01*
Y10076D01*
X15892Y10087D01*
X16005Y10152D01*
X16098Y10245D01*
X16163Y10358D01*
X16197Y10485D01*
Y10615D01*
X16163Y10742D01*
X16098Y10855D01*
X16005Y10948D01*
X15892Y11013D01*
X15850Y11024D01*
Y11076D01*
X15892Y11087D01*
X16005Y11152D01*
X16098Y11245D01*
X16163Y11358D01*
X16197Y11485D01*
Y11615D01*
X16163Y11742D01*
X16098Y11855D01*
X16005Y11948D01*
X15892Y12013D01*
X15850Y12024D01*
Y12076D01*
X15892Y12087D01*
X16005Y12152D01*
X16098Y12245D01*
X16163Y12358D01*
X16197Y12485D01*
Y12615D01*
X16163Y12742D01*
X16098Y12855D01*
X16005Y12948D01*
X15892Y13013D01*
X15850Y13024D01*
Y13076D01*
X15892Y13087D01*
X16005Y13152D01*
X16098Y13245D01*
X16163Y13358D01*
X16197Y13485D01*
Y13615D01*
X16163Y13742D01*
X16098Y13855D01*
X16005Y13948D01*
X15892Y14013D01*
X15850Y14024D01*
Y14076D01*
X15892Y14087D01*
X16005Y14152D01*
X16098Y14245D01*
X16163Y14358D01*
X16197Y14485D01*
Y14615D01*
X16163Y14742D01*
X16098Y14855D01*
X16005Y14948D01*
X15892Y15013D01*
X15850Y15024D01*
Y15076D01*
X15892Y15087D01*
X16005Y15152D01*
X16098Y15245D01*
X16163Y15358D01*
X16197Y15485D01*
Y15615D01*
X16163Y15742D01*
X16098Y15855D01*
X16005Y15948D01*
X15892Y16013D01*
X15850Y16024D01*
Y16076D01*
X15892Y16087D01*
X16005Y16152D01*
X16098Y16245D01*
X16163Y16358D01*
X16197Y16485D01*
Y16615D01*
X16163Y16742D01*
X16098Y16855D01*
X16005Y16948D01*
X15892Y17013D01*
X15850Y17024D01*
Y17076D01*
X15892Y17087D01*
X16005Y17152D01*
X16098Y17245D01*
X16163Y17358D01*
X16197Y17485D01*
Y17615D01*
X16163Y17742D01*
X16098Y17855D01*
X16005Y17948D01*
X15909Y18003D01*
X15922Y18053D01*
X16197D01*
Y19047D01*
X15403D01*
Y19125D01*
X15925Y19647D01*
X28254D01*
X28275Y19597D01*
D02*
G37*
G36*
X15204Y12618D02*
X15203Y12615D01*
Y12485D01*
X15237Y12358D01*
X15302Y12245D01*
X15395Y12152D01*
X15508Y12087D01*
X15550Y12076D01*
Y12024D01*
X15508Y12013D01*
X15395Y11948D01*
X15302Y11855D01*
X15237Y11742D01*
X15203Y11615D01*
Y11485D01*
X15237Y11358D01*
X15302Y11245D01*
X15395Y11152D01*
X15508Y11087D01*
X15550Y11076D01*
Y11024D01*
X15508Y11013D01*
X15395Y10948D01*
X15302Y10855D01*
X15237Y10742D01*
X15203Y10615D01*
Y10485D01*
X15237Y10358D01*
X15302Y10245D01*
X15395Y10152D01*
X15508Y10087D01*
X15550Y10076D01*
Y10024D01*
X15508Y10013D01*
X15395Y9948D01*
X15302Y9855D01*
X15237Y9742D01*
X15203Y9615D01*
Y9485D01*
X15231Y9380D01*
X15224Y9372D01*
X15153Y9352D01*
X15103Y9378D01*
Y12654D01*
X15149Y12673D01*
X15204Y12618D01*
D02*
G37*
G36*
X23218Y11669D02*
X23203Y11615D01*
Y11484D01*
X23207Y11471D01*
X22386Y10650D01*
X22338Y10588D01*
X22308Y10515D01*
X22297Y10436D01*
Y6500D01*
X22308Y6422D01*
X22338Y6349D01*
X22386Y6286D01*
X25119Y3553D01*
X25099Y3503D01*
X21875D01*
X20614Y4764D01*
X18117Y7261D01*
X18054Y7309D01*
X17981Y7339D01*
X17903Y7350D01*
X17093D01*
X17074Y7396D01*
X17375Y7697D01*
X17375Y7697D01*
X17450Y7740D01*
X17510Y7800D01*
X17553Y7875D01*
X17575Y7957D01*
Y8043D01*
X17553Y8125D01*
X17511Y8197D01*
X17518Y8224D01*
X17528Y8247D01*
X17725D01*
X21547Y4425D01*
X21547Y4425D01*
X21590Y4350D01*
X21650Y4290D01*
X21725Y4247D01*
X21807Y4225D01*
X21893D01*
X21975Y4247D01*
X22050Y4290D01*
X22110Y4350D01*
X22153Y4425D01*
X22175Y4507D01*
Y4593D01*
X22153Y4675D01*
X22110Y4750D01*
X22050Y4810D01*
X21975Y4853D01*
X21975Y4853D01*
X18127Y8701D01*
X18146Y8747D01*
X19289D01*
X19314Y8704D01*
X19297Y8675D01*
X19275Y8593D01*
Y8507D01*
X19297Y8425D01*
X19340Y8350D01*
X19400Y8290D01*
X19475Y8247D01*
X19557Y8225D01*
X19643D01*
X19725Y8247D01*
X19800Y8290D01*
X19860Y8350D01*
X19903Y8425D01*
X19903Y8425D01*
X23173Y11695D01*
X23218Y11669D01*
D02*
G37*
G36*
X16982Y8224D02*
X16989Y8197D01*
X16947Y8125D01*
X16947Y8125D01*
X16675Y7853D01*
X16099D01*
X16098Y7855D01*
X16005Y7948D01*
X15892Y8013D01*
X15850Y8024D01*
Y8076D01*
X15892Y8087D01*
X16005Y8152D01*
X16098Y8245D01*
X16099Y8247D01*
X16972D01*
X16982Y8224D01*
D02*
G37*
G36*
X36447Y7390D02*
Y5213D01*
X36401Y5194D01*
X36355Y5239D01*
X36241Y5305D01*
X36114Y5339D01*
X35982D01*
X35901Y5317D01*
X35851Y5356D01*
Y7250D01*
X35870Y7273D01*
X35897Y7289D01*
X35981Y7267D01*
X36112D01*
X36239Y7301D01*
X36353Y7367D01*
X36397Y7411D01*
X36447Y7390D01*
D02*
G37*
G36*
X33706Y8147D02*
X33640Y8081D01*
X33574Y7967D01*
X33540Y7840D01*
Y7708D01*
X33574Y7581D01*
X33640Y7467D01*
X33733Y7374D01*
X33847Y7308D01*
X33975Y7274D01*
X34106D01*
X34233Y7308D01*
X34347Y7374D01*
X34440Y7467D01*
X34506Y7581D01*
X34513Y7607D01*
X34565D01*
X34573Y7576D01*
X34639Y7462D01*
X34732Y7369D01*
X34846Y7303D01*
X34974Y7269D01*
X35105D01*
X35110Y7270D01*
X35245Y7135D01*
Y5344D01*
X35195Y5305D01*
X35105Y5330D01*
X34974D01*
X34846Y5295D01*
X34732Y5230D01*
X34639Y5137D01*
X34573Y5023D01*
X34571Y5012D01*
X34521D01*
X34516Y5030D01*
X34450Y5144D01*
X34357Y5237D01*
X34243Y5303D01*
X34116Y5337D01*
X33984D01*
X33857Y5303D01*
X33743Y5237D01*
X33650Y5144D01*
X33584Y5030D01*
X33550Y4903D01*
Y4771D01*
X33584Y4644D01*
X33650Y4530D01*
X33743Y4437D01*
X33857Y4371D01*
X33948Y4346D01*
X33963Y4291D01*
X33425Y3753D01*
X32963D01*
X32935Y3794D01*
X32941Y3809D01*
X32953Y3900D01*
X32941Y3991D01*
X32906Y4077D01*
X32850Y4150D01*
X32811Y4188D01*
X32738Y4244D01*
X32653Y4279D01*
X32562Y4291D01*
X32453D01*
Y7154D01*
X33496Y8197D01*
X33686D01*
X33706Y8147D01*
D02*
G37*
G36*
X32136Y19023D02*
X32202Y18909D01*
X32295Y18815D01*
X32409Y18750D01*
X32536Y18716D01*
X32668D01*
X32673Y18717D01*
X33134Y18256D01*
X33197Y18207D01*
X33270Y18177D01*
X33348Y18167D01*
X36705D01*
X38047Y16825D01*
Y5535D01*
X37203Y4691D01*
X37153Y4712D01*
Y8200D01*
X37141Y8291D01*
X37106Y8377D01*
X37050Y8450D01*
X35546Y9953D01*
X35473Y10009D01*
X35388Y10044D01*
X35297Y10056D01*
X34825D01*
X34821Y10106D01*
X34841Y10109D01*
X34927Y10144D01*
X35000Y10200D01*
X35930Y11131D01*
X35930Y11131D01*
X36800Y12000D01*
X36856Y12073D01*
X36876Y12123D01*
X36938Y12185D01*
X36994Y12258D01*
X37029Y12343D01*
X37041Y12434D01*
Y12488D01*
X37029Y12580D01*
X36994Y12665D01*
X36938Y12738D01*
X36865Y12794D01*
X36780Y12829D01*
X36688Y12841D01*
X36597Y12829D01*
X36512Y12794D01*
X36503Y12787D01*
X36453Y12812D01*
Y13900D01*
X36441Y13991D01*
X36406Y14077D01*
X36350Y14150D01*
X36277Y14206D01*
X36191Y14241D01*
X36100Y14253D01*
X36009Y14241D01*
X35923Y14206D01*
X35850Y14150D01*
X35794Y14077D01*
X35759Y13991D01*
X35747Y13900D01*
Y12896D01*
X34304Y11453D01*
X28088D01*
X27996Y11441D01*
X27911Y11406D01*
X27838Y11350D01*
X26697Y10208D01*
X26630D01*
X26503Y10174D01*
X26389Y10108D01*
X26296Y10015D01*
X26230Y9901D01*
X26196Y9774D01*
Y9643D01*
X26230Y9515D01*
X26296Y9401D01*
X26389Y9308D01*
X26503Y9242D01*
X26630Y9208D01*
X26762D01*
X26889Y9242D01*
X27003Y9308D01*
X27096Y9401D01*
X27162Y9515D01*
X27196Y9643D01*
Y9709D01*
X28234Y10747D01*
X30473D01*
X30485Y10710D01*
X30486Y10697D01*
X29993Y10204D01*
X29926D01*
X29799Y10169D01*
X29685Y10104D01*
X29592Y10011D01*
X29526Y9897D01*
X29492Y9769D01*
Y9638D01*
X29526Y9511D01*
X29592Y9397D01*
X29685Y9303D01*
X29799Y9238D01*
X29926Y9204D01*
X30058D01*
X30185Y9238D01*
X30299Y9303D01*
X30392Y9397D01*
X30458Y9511D01*
X30492Y9638D01*
Y9704D01*
X30650Y9862D01*
X30694Y9836D01*
X30677Y9769D01*
Y9638D01*
X30711Y9510D01*
X30776Y9396D01*
X30870Y9303D01*
X30984Y9237D01*
X31111Y9203D01*
X31242D01*
X31370Y9237D01*
X31484Y9303D01*
X31531Y9350D01*
X35150D01*
X36207Y8293D01*
X36182Y8248D01*
X36112Y8267D01*
X36046D01*
X35513Y8800D01*
X35440Y8856D01*
X35355Y8891D01*
X35263Y8903D01*
X33350D01*
X33350Y8903D01*
X33259Y8891D01*
X33173Y8856D01*
X33100Y8800D01*
X31850Y7550D01*
X31794Y7477D01*
X31759Y7391D01*
X31747Y7300D01*
Y4076D01*
X31759Y3984D01*
X31794Y3899D01*
X31850Y3826D01*
X31913Y3763D01*
X31905Y3721D01*
X31896Y3710D01*
X31836Y3664D01*
X31836Y3664D01*
X31675Y3503D01*
X30759D01*
X30738Y3553D01*
X30914Y3728D01*
X30962Y3791D01*
X30992Y3864D01*
X31003Y3942D01*
Y4024D01*
X31003Y4025D01*
X31025Y4107D01*
Y4193D01*
X31003Y4275D01*
X30960Y4350D01*
X30900Y4410D01*
X30825Y4453D01*
X30743Y4475D01*
X30657D01*
X30575Y4453D01*
X30500Y4410D01*
X30440Y4350D01*
X30397Y4275D01*
X30375Y4193D01*
Y4107D01*
X30380Y4090D01*
X30342Y4043D01*
X25485D01*
X22903Y6625D01*
Y10311D01*
X23157Y10565D01*
X23203Y10546D01*
Y10484D01*
X23237Y10358D01*
X23302Y10245D01*
X23395Y10152D01*
X23508Y10087D01*
X23550Y10076D01*
Y10024D01*
X23508Y10013D01*
X23395Y9947D01*
X23302Y9855D01*
X23237Y9742D01*
X23203Y9615D01*
Y9484D01*
X23237Y9358D01*
X23302Y9245D01*
X23395Y9152D01*
X23508Y9087D01*
X23550Y9076D01*
Y9024D01*
X23508Y9013D01*
X23395Y8947D01*
X23302Y8855D01*
X23237Y8742D01*
X23203Y8615D01*
Y8484D01*
X23237Y8358D01*
X23302Y8245D01*
X23395Y8152D01*
X23508Y8087D01*
X23550Y8076D01*
Y8024D01*
X23508Y8013D01*
X23395Y7947D01*
X23302Y7855D01*
X23237Y7742D01*
X23203Y7615D01*
Y7484D01*
X23237Y7358D01*
X23302Y7245D01*
X23395Y7152D01*
X23508Y7087D01*
X23635Y7053D01*
X23765D01*
X23892Y7087D01*
X24005Y7152D01*
X24098Y7245D01*
X24163Y7358D01*
X24197Y7484D01*
Y7615D01*
X24163Y7742D01*
X24098Y7855D01*
X24005Y7947D01*
X23892Y8013D01*
X23850Y8024D01*
Y8076D01*
X23892Y8087D01*
X24005Y8152D01*
X24098Y8245D01*
X24163Y8358D01*
X24197Y8484D01*
Y8615D01*
X24163Y8742D01*
X24098Y8855D01*
X24005Y8947D01*
X23892Y9013D01*
X23850Y9024D01*
Y9076D01*
X23892Y9087D01*
X24005Y9152D01*
X24098Y9245D01*
X24163Y9358D01*
X24197Y9484D01*
Y9615D01*
X24163Y9742D01*
X24098Y9855D01*
X24005Y9947D01*
X23892Y10013D01*
X23850Y10024D01*
Y10076D01*
X23892Y10087D01*
X24005Y10152D01*
X24098Y10245D01*
X24163Y10358D01*
X24197Y10484D01*
Y10615D01*
X24163Y10742D01*
X24098Y10855D01*
X24005Y10947D01*
X23892Y11013D01*
X23850Y11024D01*
Y11076D01*
X23892Y11087D01*
X24005Y11152D01*
X24098Y11245D01*
X24163Y11358D01*
X24197Y11484D01*
Y11615D01*
X24175Y11697D01*
X24213Y11747D01*
X24650D01*
X24728Y11758D01*
X24801Y11788D01*
X24864Y11836D01*
X31737Y18709D01*
X31756Y18733D01*
X31792Y18743D01*
X31906Y18809D01*
X32000Y18902D01*
X32065Y19016D01*
X32076Y19055D01*
X32127D01*
X32136Y19023D01*
D02*
G37*
G36*
X19623Y4899D02*
X19608Y4843D01*
X19550Y4810D01*
X19490Y4750D01*
X19447Y4675D01*
X19425Y4593D01*
Y4574D01*
X19375Y4553D01*
X17664Y6264D01*
X17601Y6312D01*
X17528Y6342D01*
X17450Y6353D01*
X17400D01*
X17368Y6403D01*
X17391Y6459D01*
X17403Y6550D01*
X17391Y6641D01*
X17369Y6695D01*
X17402Y6745D01*
X17778D01*
X19623Y4899D01*
D02*
G37*
G36*
X21423Y3099D02*
X21404Y3053D01*
X20875D01*
X19753Y4175D01*
X19774Y4225D01*
X19793D01*
X19875Y4247D01*
X19876Y4247D01*
X20275D01*
X21423Y3099D01*
D02*
G37*
G36*
X34942Y3891D02*
X34522Y3471D01*
X34466Y3398D01*
X34430Y3313D01*
X34421Y3244D01*
X34407Y3236D01*
X34314Y3143D01*
X34248Y3029D01*
X34214Y2902D01*
Y2770D01*
X34248Y2643D01*
X34314Y2529D01*
X34344Y2499D01*
X34325Y2453D01*
X33922D01*
X33903Y2499D01*
X33933Y2529D01*
X33999Y2643D01*
X34033Y2770D01*
Y2902D01*
X33999Y3029D01*
X33933Y3143D01*
X33840Y3236D01*
X33827Y3243D01*
X33821Y3293D01*
X34465Y3938D01*
X34923D01*
X34942Y3891D01*
D02*
G37*
G36*
X1181Y21399D02*
X3734D01*
X3753Y21352D01*
X3150Y20750D01*
X3094Y20677D01*
X3059Y20591D01*
X3047Y20500D01*
Y19146D01*
X2404Y18503D01*
X1250D01*
X1159Y18491D01*
X1073Y18456D01*
X1000Y18400D01*
X450Y17850D01*
X394Y17777D01*
X359Y17691D01*
X347Y17600D01*
Y12906D01*
X359Y12815D01*
X394Y12729D01*
X450Y12656D01*
X1647Y11460D01*
Y6690D01*
X1597D01*
X1493Y6677D01*
X1397Y6637D01*
X1314Y6573D01*
X1250Y6490D01*
X1210Y6394D01*
X1197Y6290D01*
Y5896D01*
X1210Y5793D01*
X1250Y5696D01*
X1314Y5613D01*
X1397Y5550D01*
X1493Y5510D01*
X1597Y5496D01*
X2384D01*
X2488Y5510D01*
X2585Y5550D01*
X2667Y5613D01*
X2731Y5696D01*
X2771Y5793D01*
X2785Y5896D01*
Y6290D01*
X2771Y6394D01*
X2731Y6490D01*
X2667Y6573D01*
X2585Y6637D01*
X2488Y6677D01*
X2384Y6690D01*
X2353D01*
Y9085D01*
X2403Y9099D01*
X2451Y9015D01*
X2545Y8922D01*
X2659Y8856D01*
X2786Y8822D01*
X2917D01*
X3045Y8856D01*
X3159Y8922D01*
X3252Y9015D01*
X3317Y9129D01*
X3352Y9256D01*
Y9388D01*
X3317Y9515D01*
X3252Y9629D01*
X3159Y9722D01*
X3045Y9788D01*
X3011Y9797D01*
Y9847D01*
X3045Y9856D01*
X3159Y9922D01*
X3206Y9969D01*
X3872D01*
X3963Y9981D01*
X4048Y10016D01*
X4121Y10072D01*
X4400Y10350D01*
X4456Y10423D01*
X4491Y10509D01*
X4503Y10600D01*
Y11670D01*
X4534Y11701D01*
X4600Y11815D01*
X4609Y11849D01*
X4659D01*
X4668Y11815D01*
X4734Y11701D01*
X4827Y11608D01*
X4941Y11542D01*
X5068Y11508D01*
X5200D01*
X5327Y11542D01*
X5441Y11608D01*
X5534Y11701D01*
X5600Y11815D01*
X5609Y11849D01*
X5659D01*
X5668Y11815D01*
X5734Y11701D01*
X5827Y11608D01*
X5941Y11542D01*
X6068Y11508D01*
X6200D01*
X6327Y11542D01*
X6441Y11608D01*
X6534Y11701D01*
X6600Y11815D01*
X6609Y11849D01*
X6659D01*
X6668Y11815D01*
X6734Y11701D01*
X6827Y11608D01*
X6941Y11542D01*
X7068Y11508D01*
X7200D01*
X7327Y11542D01*
X7441Y11608D01*
X7534Y11701D01*
X7600Y11815D01*
X7609Y11849D01*
X7659D01*
X7668Y11815D01*
X7734Y11701D01*
X7827Y11608D01*
X7941Y11542D01*
X8068Y11508D01*
X8200D01*
X8327Y11542D01*
X8441Y11608D01*
X8534Y11701D01*
X8600Y11815D01*
X8609Y11849D01*
X8659D01*
X8668Y11815D01*
X8734Y11701D01*
X8827Y11608D01*
X8941Y11542D01*
X9068Y11508D01*
X9200D01*
X9327Y11542D01*
X9441Y11608D01*
X9534Y11701D01*
X9600Y11815D01*
X9609Y11849D01*
X9659D01*
X9668Y11815D01*
X9734Y11701D01*
X9827Y11608D01*
X9941Y11542D01*
X10068Y11508D01*
X10200D01*
X10327Y11542D01*
X10441Y11608D01*
X10534Y11701D01*
X10600Y11815D01*
X10612Y11818D01*
X10639D01*
X10652Y11815D01*
X10717Y11701D01*
X10810Y11608D01*
X10924Y11542D01*
X11051Y11508D01*
X11183D01*
X11310Y11542D01*
X11424Y11608D01*
X11517Y11701D01*
X11583Y11815D01*
X11592Y11849D01*
X11642D01*
X11651Y11815D01*
X11717Y11701D01*
X11810Y11608D01*
X11924Y11542D01*
X12052Y11508D01*
X12183D01*
X12310Y11542D01*
X12424Y11608D01*
X12517Y11701D01*
X12583Y11815D01*
X12592Y11849D01*
X12642D01*
X12651Y11815D01*
X12717Y11701D01*
X12810Y11608D01*
X12924Y11542D01*
X13052Y11508D01*
X13183D01*
X13310Y11542D01*
X13424Y11608D01*
X13451Y11634D01*
X13497Y11615D01*
Y2484D01*
X13509Y2393D01*
X13544Y2308D01*
X13600Y2235D01*
X14586Y1249D01*
X14567Y1203D01*
X7296D01*
X3928Y4571D01*
X3855Y4627D01*
X3770Y4663D01*
X3678Y4675D01*
X2749D01*
X2731Y4719D01*
X2667Y4801D01*
X2585Y4865D01*
X2488Y4905D01*
X2384Y4919D01*
X1597D01*
X1493Y4905D01*
X1397Y4865D01*
X1314Y4801D01*
X1250Y4719D01*
X1210Y4622D01*
X1197Y4518D01*
Y4125D01*
X1210Y4021D01*
X1250Y3925D01*
X1314Y3842D01*
X1397Y3778D01*
X1493Y3738D01*
X1597Y3724D01*
X2384D01*
X2488Y3738D01*
X2585Y3778D01*
X2667Y3842D01*
X2731Y3925D01*
X2749Y3969D01*
X3532D01*
X6900Y600D01*
X6973Y544D01*
X7059Y509D01*
X7150Y497D01*
X20700D01*
X20791Y509D01*
X20877Y544D01*
X20950Y600D01*
X21006Y673D01*
X21041Y759D01*
X21053Y850D01*
X21041Y941D01*
X21035Y955D01*
X21063Y997D01*
X24617D01*
X25005Y608D01*
Y542D01*
X25039Y415D01*
X25103Y305D01*
X25094Y274D01*
X25086Y255D01*
X1181D01*
X1166Y252D01*
X1000Y268D01*
X825Y321D01*
X664Y407D01*
X523Y523D01*
X407Y664D01*
X321Y825D01*
X268Y1000D01*
X252Y1166D01*
X255Y1181D01*
Y20472D01*
X252Y20487D01*
X268Y20654D01*
X321Y20829D01*
X407Y20989D01*
X523Y21130D01*
X664Y21246D01*
X825Y21332D01*
X1000Y21385D01*
X1166Y21402D01*
X1181Y21399D01*
D02*
G37*
G36*
X30676Y609D02*
Y543D01*
X30710Y415D01*
X30773Y305D01*
X30767Y279D01*
X30757Y255D01*
X25924D01*
X25917Y274D01*
X25908Y305D01*
X25971Y415D01*
X26005Y542D01*
Y673D01*
X25971Y801D01*
X25905Y915D01*
X25812Y1008D01*
X25698Y1074D01*
X25571Y1108D01*
X25505D01*
X25161Y1451D01*
X25181Y1497D01*
X29788D01*
X30676Y609D01*
D02*
G37*
G36*
X15283Y5836D02*
X15283Y5836D01*
X15289Y5832D01*
X15237Y5742D01*
X15203Y5615D01*
Y5485D01*
X15237Y5358D01*
X15302Y5245D01*
X15395Y5152D01*
X15508Y5087D01*
X15550Y5076D01*
Y5024D01*
X15508Y5013D01*
X15395Y4948D01*
X15302Y4855D01*
X15237Y4742D01*
X15203Y4615D01*
Y4485D01*
X15237Y4358D01*
X15302Y4245D01*
X15395Y4152D01*
X15508Y4087D01*
X15550Y4076D01*
Y4024D01*
X15508Y4013D01*
X15395Y3948D01*
X15302Y3855D01*
X15237Y3742D01*
X15203Y3615D01*
Y3485D01*
X15237Y3358D01*
X15302Y3245D01*
X15395Y3152D01*
X15508Y3087D01*
X15635Y3053D01*
X15765D01*
X15892Y3087D01*
X16005Y3152D01*
X16098Y3245D01*
X16163Y3358D01*
X16197Y3485D01*
Y3615D01*
X16163Y3742D01*
X16098Y3855D01*
X16005Y3948D01*
X15892Y4013D01*
X15850Y4024D01*
Y4076D01*
X15892Y4087D01*
X16005Y4152D01*
X16098Y4245D01*
X16163Y4358D01*
X16197Y4485D01*
Y4615D01*
X16163Y4742D01*
X16098Y4855D01*
X16005Y4948D01*
X15892Y5013D01*
X15850Y5024D01*
Y5076D01*
X15892Y5087D01*
X16005Y5152D01*
X16098Y5245D01*
X16163Y5358D01*
X16197Y5485D01*
Y5615D01*
X16175Y5697D01*
X16213Y5747D01*
X17325D01*
X20536Y2536D01*
X20599Y2488D01*
X20672Y2458D01*
X20750Y2447D01*
X20750Y2447D01*
X30650D01*
X31161Y1936D01*
X31224Y1888D01*
X31297Y1858D01*
X31375Y1847D01*
X36400D01*
X36478Y1858D01*
X36551Y1888D01*
X36614Y1936D01*
X36795Y2117D01*
X36843Y2179D01*
X36873Y2252D01*
X36883Y2331D01*
Y2377D01*
X36926Y2402D01*
X36981Y2370D01*
X37109Y2336D01*
X37216D01*
X37242Y2287D01*
X37176Y2195D01*
X37091Y2029D01*
X37034Y1852D01*
X37005Y1668D01*
Y1482D01*
X37034Y1297D01*
X37091Y1120D01*
X37176Y954D01*
X37286Y803D01*
X37417Y672D01*
X37568Y562D01*
X37734Y477D01*
X37912Y420D01*
X38096Y391D01*
X38282D01*
X38466Y420D01*
X38644Y477D01*
X38810Y562D01*
X38930Y649D01*
X38979Y623D01*
X38979Y602D01*
X38884Y487D01*
X38759Y384D01*
X38616Y308D01*
X38462Y261D01*
X38301Y245D01*
X38216Y254D01*
X38216Y254D01*
X38189Y255D01*
X38167Y255D01*
X31594D01*
X31585Y279D01*
X31578Y305D01*
X31641Y415D01*
X31676Y543D01*
Y674D01*
X31641Y801D01*
X31576Y915D01*
X31483Y1009D01*
X31369Y1074D01*
X31241Y1108D01*
X31175D01*
X30184Y2100D01*
X30111Y2156D01*
X30025Y2191D01*
X29934Y2203D01*
X15596D01*
X14603Y3196D01*
Y6451D01*
X14649Y6470D01*
X15283Y5836D01*
D02*
G37*
%LPC*%
G36*
X37692Y21263D02*
X37505D01*
X37321Y21234D01*
X37144Y21176D01*
X36978Y21092D01*
X36827Y20982D01*
X36695Y20850D01*
X36586Y20699D01*
X36501Y20533D01*
X36443Y20356D01*
X36414Y20172D01*
Y19986D01*
X36443Y19801D01*
X36501Y19624D01*
X36586Y19458D01*
X36695Y19307D01*
X36827Y19175D01*
X36978Y19066D01*
X37144Y18981D01*
X37321Y18924D01*
X37505Y18894D01*
X37692D01*
X37876Y18924D01*
X38053Y18981D01*
X38219Y19066D01*
X38370Y19175D01*
X38502Y19307D01*
X38611Y19458D01*
X38696Y19624D01*
X38754Y19801D01*
X38783Y19986D01*
Y20172D01*
X38754Y20356D01*
X38696Y20533D01*
X38611Y20699D01*
X38502Y20850D01*
X38370Y20982D01*
X38219Y21092D01*
X38053Y21176D01*
X37876Y21234D01*
X37692Y21263D01*
D02*
G37*
G36*
X37423Y15240D02*
X37292D01*
X37164Y15206D01*
X37050Y15140D01*
X36957Y15047D01*
X36892Y14933D01*
X36857Y14806D01*
Y14674D01*
X36892Y14547D01*
X36957Y14433D01*
X37050Y14340D01*
X37164Y14274D01*
X37292Y14240D01*
X37423D01*
X37550Y14274D01*
X37664Y14340D01*
X37758Y14433D01*
X37823Y14547D01*
X37857Y14674D01*
Y14806D01*
X37823Y14933D01*
X37758Y15047D01*
X37664Y15140D01*
X37550Y15206D01*
X37423Y15240D01*
D02*
G37*
G36*
X29982Y15240D02*
X29850D01*
X29723Y15206D01*
X29609Y15140D01*
X29516Y15047D01*
X29450Y14933D01*
X29416Y14806D01*
Y14674D01*
X29450Y14547D01*
X29516Y14433D01*
X29609Y14340D01*
X29723Y14274D01*
X29850Y14240D01*
X29982D01*
X30109Y14274D01*
X30223Y14340D01*
X30316Y14433D01*
X30382Y14547D01*
X30416Y14674D01*
Y14806D01*
X30382Y14933D01*
X30316Y15047D01*
X30223Y15140D01*
X30109Y15206D01*
X29982Y15240D01*
D02*
G37*
G36*
X37416Y16800D02*
X37284D01*
X37157Y16766D01*
X37043Y16700D01*
X36950Y16607D01*
X36884Y16493D01*
X36850Y16366D01*
Y16353D01*
X34500Y14003D01*
X28850D01*
X28759Y13991D01*
X28673Y13956D01*
X28600Y13900D01*
X26150Y11450D01*
X26150Y11450D01*
X25612Y10911D01*
X25599Y10906D01*
X25526Y10850D01*
X25324Y10648D01*
X25268Y10574D01*
X25233Y10489D01*
X25221Y10398D01*
Y10116D01*
X25209Y10109D01*
X25116Y10016D01*
X25050Y9902D01*
X25016Y9775D01*
Y9643D01*
X25050Y9516D01*
X25116Y9402D01*
X25209Y9309D01*
X25323Y9243D01*
X25450Y9209D01*
X25582D01*
X25709Y9243D01*
X25823Y9309D01*
X25916Y9402D01*
X25982Y9516D01*
X26016Y9643D01*
Y9775D01*
X25982Y9902D01*
X25927Y9998D01*
Y10252D01*
X25964Y10289D01*
X25977Y10294D01*
X26050Y10350D01*
X26650Y10950D01*
X26650Y10950D01*
X28996Y13297D01*
X34647D01*
X34738Y13309D01*
X34823Y13344D01*
X34896Y13400D01*
X37296Y15800D01*
X37416D01*
X37543Y15834D01*
X37657Y15900D01*
X37750Y15993D01*
X37816Y16107D01*
X37850Y16234D01*
Y16366D01*
X37816Y16493D01*
X37750Y16607D01*
X37657Y16700D01*
X37543Y16766D01*
X37416Y16800D01*
D02*
G37*
G36*
X1865Y21263D02*
X1678D01*
X1494Y21234D01*
X1317Y21176D01*
X1151Y21092D01*
X1000Y20982D01*
X868Y20850D01*
X759Y20699D01*
X674Y20533D01*
X617Y20356D01*
X587Y20172D01*
Y19986D01*
X617Y19801D01*
X674Y19624D01*
X759Y19458D01*
X868Y19307D01*
X1000Y19175D01*
X1151Y19066D01*
X1317Y18981D01*
X1494Y18924D01*
X1678Y18894D01*
X1865D01*
X2049Y18924D01*
X2226Y18981D01*
X2392Y19066D01*
X2543Y19175D01*
X2675Y19307D01*
X2785Y19458D01*
X2869Y19624D01*
X2927Y19801D01*
X2956Y19986D01*
Y20172D01*
X2927Y20356D01*
X2869Y20533D01*
X2785Y20699D01*
X2675Y20850D01*
X2543Y20982D01*
X2392Y21092D01*
X2226Y21176D01*
X2049Y21234D01*
X1865Y21263D01*
D02*
G37*
G36*
Y3153D02*
X1678D01*
X1494Y3124D01*
X1317Y3066D01*
X1151Y2981D01*
X1000Y2872D01*
X868Y2740D01*
X759Y2589D01*
X674Y2423D01*
X617Y2246D01*
X587Y2062D01*
Y1875D01*
X617Y1691D01*
X674Y1514D01*
X759Y1348D01*
X868Y1197D01*
X1000Y1065D01*
X1151Y956D01*
X1317Y871D01*
X1494Y813D01*
X1678Y784D01*
X1865D01*
X2049Y813D01*
X2226Y871D01*
X2392Y956D01*
X2543Y1065D01*
X2675Y1197D01*
X2785Y1348D01*
X2869Y1514D01*
X2927Y1691D01*
X2956Y1875D01*
Y2062D01*
X2927Y2246D01*
X2869Y2423D01*
X2785Y2589D01*
X2675Y2740D01*
X2543Y2872D01*
X2392Y2981D01*
X2226Y3066D01*
X2049Y3124D01*
X1865Y3153D01*
D02*
G37*
%LPD*%
D20*
X23700Y18500D02*
Y18550D01*
X22900Y17700D02*
X23700Y18500D01*
X22900Y17650D02*
Y17700D01*
X21161Y15411D02*
X22550Y16800D01*
X21161Y15354D02*
Y15411D01*
X20161Y15354D02*
X21957Y17150D01*
X23300D02*
X23700Y17550D01*
X21957Y17150D02*
X23300D01*
X23700Y17550D02*
X24900D01*
X15270Y9050D02*
X19497D01*
X15267Y9047D02*
X15270Y9050D01*
X19497D02*
X23494Y13047D01*
X15700Y7550D02*
X16800D01*
X17250Y8000D01*
X19600Y8550D02*
X23100Y12050D01*
X12234Y13500D02*
X12500D01*
X12117Y13383D02*
X12234Y13500D01*
X12117Y12008D02*
Y13383D01*
X14650Y6897D02*
X15497Y6050D01*
X17450D01*
X20400Y4550D02*
X21750Y3200D01*
X17903Y7047D02*
X20400Y4550D01*
X19750D02*
X20400D01*
X13117Y12008D02*
X13150Y12041D01*
Y13900D01*
X15800Y19950D02*
X28862D01*
X15100Y19250D02*
X15800Y19950D01*
X28862D02*
X29601Y19212D01*
X14250Y19150D02*
X14550Y19450D01*
X14250Y17500D02*
Y19150D01*
X15100Y13150D02*
Y19250D01*
X17850Y8550D02*
X21850Y4550D01*
X15700Y8550D02*
X17850D01*
X14800Y7650D02*
Y16950D01*
Y7650D02*
X15403Y7047D01*
X17903D01*
X15100Y13150D02*
X15700Y12550D01*
X14250Y17500D02*
X14800Y16950D01*
X17450Y6050D02*
X20750Y2750D01*
X23494Y13047D02*
X24097D01*
X24650Y12050D02*
X31523Y18923D01*
X23100Y12050D02*
X24650D01*
X30700Y3942D02*
Y4150D01*
X30498Y3740D02*
X30700Y3942D01*
X25360Y3740D02*
X30498D01*
X25150Y17800D02*
Y18612D01*
X21777Y12016D02*
Y12593D01*
X21850Y12666D02*
Y13700D01*
X21777Y12593D02*
X21850Y12666D01*
X31523Y19133D02*
X31599Y19209D01*
X31523Y18923D02*
Y19133D01*
X24097Y13047D02*
X29404Y18354D01*
Y18360D01*
X29793Y18750D01*
X36400Y2150D02*
X36581Y2331D01*
Y3641D02*
X38350Y5410D01*
X36581Y2331D02*
Y3641D01*
X30138Y18750D02*
X30601Y19212D01*
X29793Y18750D02*
X30138D01*
X21750Y3200D02*
X31800D01*
X32050Y3450D01*
X33550D01*
X34340Y4240D01*
X35157D01*
X2928Y11398D02*
Y11628D01*
X5000Y13700D02*
Y19300D01*
X2852Y11322D02*
X2928Y11398D01*
Y11628D02*
X5000Y13700D01*
X38350Y5410D02*
Y16950D01*
X36830Y18470D02*
X38350Y16950D01*
X33348Y18470D02*
X36830D01*
X35039Y7769D02*
X35548Y7260D01*
X35157Y4240D02*
X35548Y4631D01*
Y7260D01*
X30775Y2750D02*
X31375Y2150D01*
X20750Y2750D02*
X30775D01*
X31375Y2150D02*
X36400D01*
X22600Y6500D02*
X25360Y3740D01*
X22600Y6500D02*
Y10436D01*
X6500Y20800D02*
X31850D01*
X5000Y19300D02*
X6500Y20800D01*
X31850D02*
X32544Y20106D01*
X32583D01*
X21850Y13700D02*
X23700Y15550D01*
X20850Y13700D02*
X23700Y16550D01*
X20850Y12100D02*
Y13700D01*
X24900Y17550D02*
X25150Y17800D01*
X32602Y19216D02*
X33348Y18470D01*
X22600Y10436D02*
X23659Y11495D01*
D21*
X15700Y6550D02*
X17050D01*
X11498Y14792D02*
X13208D01*
X13850Y2484D02*
Y14150D01*
X13208Y14792D02*
X13850Y14150D01*
X16600Y19200D02*
X28584D01*
X14250Y3050D02*
X15450Y1850D01*
X13850Y2484D02*
X14984Y1350D01*
X11500Y18000D02*
X14250Y15250D01*
Y3050D02*
Y15250D01*
X28584Y19200D02*
X28601Y19217D01*
X3400Y20500D02*
X4150Y21250D01*
X3400Y19000D02*
Y20500D01*
X2550Y18150D02*
X3400Y19000D01*
X700Y12906D02*
Y17600D01*
X1250Y18150D01*
X700Y12906D02*
X2000Y11606D01*
X34647Y13650D02*
X37322Y16325D01*
X28850Y13650D02*
X34647D01*
X32100Y4076D02*
X32237Y3938D01*
X32100Y4076D02*
Y7300D01*
X32562Y3938D02*
X32600Y3900D01*
X32237Y3938D02*
X32562D01*
X4150Y10600D02*
Y12012D01*
X26400Y11200D02*
X28850Y13650D01*
X26400Y11200D02*
Y11200D01*
X25574Y10398D02*
X25776Y10600D01*
X25800D01*
X25574Y9766D02*
Y10398D01*
X25800Y10600D02*
X26400Y11200D01*
X35200Y21250D02*
X35450Y21000D01*
Y20200D02*
Y21000D01*
X4150Y21250D02*
X35200D01*
X34714Y2836D02*
X34771Y2893D01*
Y3221D02*
X35250Y3700D01*
X35850D01*
X34771Y2893D02*
Y3221D01*
X35850Y3700D02*
X36800Y4650D01*
Y8200D01*
X2531Y14807D02*
X4093D01*
X2081Y15257D02*
X2531Y14807D01*
X1859Y15257D02*
X2081D01*
X1931Y17100D02*
X2750D01*
X1859Y17028D02*
X1931Y17100D01*
X2750D02*
X4100Y18450D01*
Y19093D01*
X4090Y19103D02*
X4100Y19093D01*
X1250Y18150D02*
X2550D01*
X1991Y4322D02*
X3678D01*
X32100Y7300D02*
X33350Y8550D01*
X35263D02*
X36046Y7767D01*
X33350Y8550D02*
X35263D01*
X7150Y850D02*
X20700D01*
X3678Y4322D02*
X7150Y850D01*
X36550Y12296D02*
X36688Y12434D01*
Y12488D01*
X35681Y11381D02*
X36550Y12250D01*
X35681Y11381D02*
Y11381D01*
X36550Y12250D02*
Y12296D01*
X34750Y10450D02*
X35681Y11381D01*
X30738Y10450D02*
X34750D01*
X29992Y9704D02*
X30738Y10450D01*
X14984Y1350D02*
X24763D01*
X34450Y11100D02*
X36100Y12750D01*
Y13900D01*
X28088Y11100D02*
X34450D01*
X26696Y9708D02*
X28088Y11100D01*
X2000Y6100D02*
Y11606D01*
X35297Y9703D02*
X36800Y8200D01*
X31177Y9703D02*
X35297D01*
X15450Y1850D02*
X29934D01*
X31176Y608D01*
X11501Y14795D02*
Y15811D01*
X4093Y14807D02*
X4095Y14810D01*
X11498Y14792D02*
X11501Y14795D01*
X11498Y20107D02*
X11500Y20109D01*
X11495Y19088D02*
X11498Y19090D01*
X4095Y14810D02*
Y15826D01*
X4092Y20122D02*
X4095Y20124D01*
X11498Y19090D02*
Y20107D01*
X4095Y15826D02*
X4098Y15828D01*
X11501Y15811D02*
X11503Y15813D01*
X4092Y19105D02*
Y20122D01*
X4090Y19103D02*
X4092Y19105D01*
X4150Y12012D02*
X4164Y12026D01*
X3872Y10322D02*
X4150Y10600D01*
X2852Y10322D02*
X3872D01*
X24763Y1350D02*
X25505Y608D01*
X11500Y18000D02*
Y19084D01*
X11495Y19088D02*
X11500Y19084D01*
X25516Y9709D02*
X25574Y9766D01*
D23*
X1772Y20079D02*
D03*
Y1969D02*
D03*
X37598Y20079D02*
D03*
X38189Y1575D02*
D03*
D24*
X15700Y18550D02*
D03*
D25*
Y17550D02*
D03*
Y16550D02*
D03*
Y15550D02*
D03*
Y14550D02*
D03*
Y13550D02*
D03*
Y12550D02*
D03*
Y11550D02*
D03*
Y10550D02*
D03*
Y9550D02*
D03*
Y8550D02*
D03*
Y7550D02*
D03*
Y6550D02*
D03*
Y5550D02*
D03*
Y4550D02*
D03*
Y3550D02*
D03*
X23700Y7550D02*
D03*
Y8550D02*
D03*
Y9550D02*
D03*
Y10550D02*
D03*
Y11550D02*
D03*
Y12550D02*
D03*
Y13550D02*
D03*
Y14550D02*
D03*
Y15550D02*
D03*
Y16550D02*
D03*
Y17550D02*
D03*
Y18550D02*
D03*
D26*
X21161Y15354D02*
D03*
X20161D02*
D03*
X19161D02*
D03*
X18161D02*
D03*
X33601Y19211D02*
D03*
X32602Y19216D02*
D03*
X31599Y19209D02*
D03*
X30601Y19212D02*
D03*
X29601Y19212D02*
D03*
X28601Y19217D02*
D03*
X4093Y14807D02*
D03*
X4098Y15828D02*
D03*
X4090Y19103D02*
D03*
X4095Y20124D02*
D03*
X11498Y14792D02*
D03*
X11503Y15813D02*
D03*
X11495Y19088D02*
D03*
X11500Y20109D02*
D03*
X31176Y608D02*
D03*
X25505Y608D02*
D03*
X31177Y9703D02*
D03*
X29992Y9704D02*
D03*
X26696Y9708D02*
D03*
X25516Y9709D02*
D03*
X34583Y20106D02*
D03*
X33583D02*
D03*
X32583D02*
D03*
X31583D02*
D03*
X30583D02*
D03*
X37357Y14740D02*
D03*
X37350Y16300D02*
D03*
X29916Y14740D02*
D03*
X29932Y18128D02*
D03*
X4134Y12008D02*
D03*
X5134D02*
D03*
X6134D02*
D03*
X7134D02*
D03*
X8134D02*
D03*
X10134D02*
D03*
X11117D02*
D03*
X12117D02*
D03*
X13117D02*
D03*
X9134D02*
D03*
X37174Y2836D02*
D03*
X32253D02*
D03*
X33533D02*
D03*
X34714D02*
D03*
X35895D02*
D03*
X35039Y7769D02*
D03*
X34040Y7774D02*
D03*
X36046Y7767D02*
D03*
X34050Y4837D02*
D03*
X36048Y4839D02*
D03*
X35039Y4830D02*
D03*
X2852Y12322D02*
D03*
Y11322D02*
D03*
Y10322D02*
D03*
Y9322D02*
D03*
D27*
X22900Y17650D02*
D03*
X22550Y16800D02*
D03*
D28*
X17250Y8000D02*
D03*
X17050Y6550D02*
D03*
X19600Y8550D02*
D03*
X12500Y13500D02*
D03*
X14650Y6897D02*
D03*
X19750Y4550D02*
D03*
X13150Y13900D02*
D03*
X14550Y19450D02*
D03*
X16600Y19200D02*
D03*
X21850Y4550D02*
D03*
X15267Y9047D02*
D03*
X21777Y12016D02*
D03*
X30700Y4150D02*
D03*
X25150Y18612D02*
D03*
X32600Y3900D02*
D03*
X35450Y20200D02*
D03*
X36688Y12488D02*
D03*
X20700Y850D02*
D03*
X36100Y13900D02*
D03*
X20850Y12100D02*
D03*
D29*
X1859Y15257D02*
D03*
Y17028D02*
D03*
X1991Y6093D02*
D03*
Y4322D02*
D03*
M02*
