G04*
G04 #@! TF.GenerationSoftware,Altium Limited,Altium Designer,21.0.8 (223)*
G04*
G04 Layer_Color=2752767*
%FSLAX24Y24*%
%MOIN*%
G70*
G04*
G04 #@! TF.SameCoordinates,F666B87A-DE90-4157-A89C-B26E4A6581EA*
G04*
G04*
G04 #@! TF.FilePolarity,Positive*
G04*
G01*
G75*
%ADD31C,0.0020*%
%ADD32C,0.0027*%
D31*
X1692Y19999D02*
Y20159D01*
X1852D01*
Y19999D01*
X1692D01*
Y1889D02*
Y2049D01*
X1852D01*
Y1889D01*
X1692D01*
X37518Y19999D02*
Y20159D01*
X37678D01*
Y19999D01*
X37518D01*
X38109Y1495D02*
Y1655D01*
X38269D01*
Y1495D01*
X38109D01*
X21161Y15274D02*
X21081Y15434D01*
X21241D01*
X21161Y15274D01*
X20161D02*
X20081Y15434D01*
X20241D01*
X20161Y15274D01*
X19161D02*
X19081Y15434D01*
X19241D01*
X19161Y15274D01*
X18161D02*
X18081Y15434D01*
X18241D01*
X18161Y15274D01*
X33601Y19131D02*
X33521Y19291D01*
X33681D01*
X33601Y19131D01*
X32602Y19136D02*
X32522Y19296D01*
X32682D01*
X32602Y19136D01*
X31599Y19129D02*
X31519Y19289D01*
X31679D01*
X31599Y19129D01*
X30601Y19132D02*
X30521Y19292D01*
X30681D01*
X30601Y19132D01*
X29601Y19132D02*
X29521Y19292D01*
X29681D01*
X29601Y19132D01*
X28601Y19137D02*
X28521Y19297D01*
X28681D01*
X28601Y19137D01*
X4093Y14727D02*
X4013Y14887D01*
X4173D01*
X4093Y14727D01*
X4098Y15748D02*
X4018Y15908D01*
X4178D01*
X4098Y15748D01*
X4090Y19023D02*
X4010Y19183D01*
X4170D01*
X4090Y19023D01*
X4095Y20044D02*
X4015Y20204D01*
X4175D01*
X4095Y20044D01*
X11498Y14712D02*
X11418Y14872D01*
X11578D01*
X11498Y14712D01*
X11503Y15733D02*
X11423Y15893D01*
X11583D01*
X11503Y15733D01*
X11495Y19008D02*
X11415Y19168D01*
X11575D01*
X11495Y19008D01*
X11500Y20029D02*
X11420Y20189D01*
X11580D01*
X11500Y20029D01*
X31176Y528D02*
X31096Y688D01*
X31256D01*
X31176Y528D01*
X25505Y528D02*
X25425Y688D01*
X25585D01*
X25505Y528D01*
X31177Y9623D02*
X31097Y9783D01*
X31257D01*
X31177Y9623D01*
X29992Y9624D02*
X29912Y9784D01*
X30072D01*
X29992Y9624D01*
X26696Y9628D02*
X26616Y9788D01*
X26776D01*
X26696Y9628D01*
X25516Y9629D02*
X25436Y9789D01*
X25596D01*
X25516Y9629D01*
X34583Y20026D02*
X34503Y20186D01*
X34663D01*
X34583Y20026D01*
X33583D02*
X33503Y20186D01*
X33663D01*
X33583Y20026D01*
X32583D02*
X32503Y20186D01*
X32663D01*
X32583Y20026D01*
X31583D02*
X31503Y20186D01*
X31663D01*
X31583Y20026D01*
X30583D02*
X30503Y20186D01*
X30663D01*
X30583Y20026D01*
X37357Y14660D02*
X37277Y14820D01*
X37437D01*
X37357Y14660D01*
X37350Y16220D02*
X37270Y16380D01*
X37430D01*
X37350Y16220D01*
X29916Y14660D02*
X29836Y14820D01*
X29996D01*
X29916Y14660D01*
X29932Y18048D02*
X29852Y18208D01*
X30012D01*
X29932Y18048D01*
X4134Y11928D02*
X4054Y12088D01*
X4214D01*
X4134Y11928D01*
X5134D02*
X5054Y12088D01*
X5214D01*
X5134Y11928D01*
X6134D02*
X6054Y12088D01*
X6214D01*
X6134Y11928D01*
X7134D02*
X7054Y12088D01*
X7214D01*
X7134Y11928D01*
X8134D02*
X8054Y12088D01*
X8214D01*
X8134Y11928D01*
X10134D02*
X10054Y12088D01*
X10214D01*
X10134Y11928D01*
X11117D02*
X11037Y12088D01*
X11197D01*
X11117Y11928D01*
X12117D02*
X12037Y12088D01*
X12197D01*
X12117Y11928D01*
X13117D02*
X13037Y12088D01*
X13197D01*
X13117Y11928D01*
X9134D02*
X9054Y12088D01*
X9214D01*
X9134Y11928D01*
X37174Y2756D02*
X37094Y2916D01*
X37254D01*
X37174Y2756D01*
X32253D02*
X32173Y2916D01*
X32333D01*
X32253Y2756D01*
X33533D02*
X33453Y2916D01*
X33613D01*
X33533Y2756D01*
X34714D02*
X34634Y2916D01*
X34794D01*
X34714Y2756D01*
X35895D02*
X35815Y2916D01*
X35975D01*
X35895Y2756D01*
X35039Y7689D02*
X34959Y7849D01*
X35119D01*
X35039Y7689D01*
X34040Y7694D02*
X33960Y7854D01*
X34120D01*
X34040Y7694D01*
X36046Y7687D02*
X35966Y7847D01*
X36126D01*
X36046Y7687D01*
X34050Y4757D02*
X33970Y4917D01*
X34130D01*
X34050Y4757D01*
X36048Y4759D02*
X35968Y4919D01*
X36128D01*
X36048Y4759D01*
X35039Y4750D02*
X34959Y4910D01*
X35119D01*
X35039Y4750D01*
X2852Y12242D02*
X2772Y12402D01*
X2932D01*
X2852Y12242D01*
Y11242D02*
X2772Y11402D01*
X2932D01*
X2852Y11242D01*
Y10242D02*
X2772Y10402D01*
X2932D01*
X2852Y10242D01*
Y9242D02*
X2772Y9402D01*
X2932D01*
X2852Y9242D01*
X22900Y17570D02*
X22940Y17610D01*
X22980D01*
X22940Y17650D01*
X22980Y17690D01*
X22940D01*
X22900Y17730D01*
X22860Y17690D01*
X22820D01*
X22860Y17650D01*
X22820Y17610D01*
X22860D01*
X22900Y17570D01*
X22550Y16720D02*
X22590Y16760D01*
X22630D01*
X22590Y16800D01*
X22630Y16840D01*
X22590D01*
X22550Y16880D01*
X22510Y16840D01*
X22470D01*
X22510Y16800D01*
X22470Y16760D01*
X22510D01*
X22550Y16720D01*
X17170Y7920D02*
X17210Y8000D01*
X17170Y8080D01*
X17250Y8040D01*
X17330Y8080D01*
X17290Y8000D01*
X17330Y7920D01*
X17250Y7960D01*
X17170Y7920D01*
X16970Y6470D02*
X17010Y6550D01*
X16970Y6630D01*
X17050Y6590D01*
X17130Y6630D01*
X17090Y6550D01*
X17130Y6470D01*
X17050Y6510D01*
X16970Y6470D01*
X19520Y8470D02*
X19560Y8550D01*
X19520Y8630D01*
X19600Y8590D01*
X19680Y8630D01*
X19640Y8550D01*
X19680Y8470D01*
X19600Y8510D01*
X19520Y8470D01*
X12420Y13420D02*
X12460Y13500D01*
X12420Y13580D01*
X12500Y13540D01*
X12580Y13580D01*
X12540Y13500D01*
X12580Y13420D01*
X12500Y13460D01*
X12420Y13420D01*
X14570Y6817D02*
X14610Y6897D01*
X14570Y6977D01*
X14650Y6937D01*
X14730Y6977D01*
X14690Y6897D01*
X14730Y6817D01*
X14650Y6857D01*
X14570Y6817D01*
X19670Y4470D02*
X19710Y4550D01*
X19670Y4630D01*
X19750Y4590D01*
X19830Y4630D01*
X19790Y4550D01*
X19830Y4470D01*
X19750Y4510D01*
X19670Y4470D01*
X13070Y13820D02*
X13110Y13900D01*
X13070Y13980D01*
X13150Y13940D01*
X13230Y13980D01*
X13190Y13900D01*
X13230Y13820D01*
X13150Y13860D01*
X13070Y13820D01*
X14470Y19370D02*
X14510Y19450D01*
X14470Y19530D01*
X14550Y19490D01*
X14630Y19530D01*
X14590Y19450D01*
X14630Y19370D01*
X14550Y19410D01*
X14470Y19370D01*
X16520Y19120D02*
X16560Y19200D01*
X16520Y19280D01*
X16600Y19240D01*
X16680Y19280D01*
X16640Y19200D01*
X16680Y19120D01*
X16600Y19160D01*
X16520Y19120D01*
X21770Y4470D02*
X21810Y4550D01*
X21770Y4630D01*
X21850Y4590D01*
X21930Y4630D01*
X21890Y4550D01*
X21930Y4470D01*
X21850Y4510D01*
X21770Y4470D01*
X15187Y8967D02*
X15227Y9047D01*
X15187Y9127D01*
X15267Y9087D01*
X15347Y9127D01*
X15307Y9047D01*
X15347Y8967D01*
X15267Y9007D01*
X15187Y8967D01*
X21697Y11936D02*
X21737Y12016D01*
X21697Y12096D01*
X21777Y12056D01*
X21857Y12096D01*
X21817Y12016D01*
X21857Y11936D01*
X21777Y11976D01*
X21697Y11936D01*
X30620Y4070D02*
X30660Y4150D01*
X30620Y4230D01*
X30700Y4190D01*
X30780Y4230D01*
X30740Y4150D01*
X30780Y4070D01*
X30700Y4110D01*
X30620Y4070D01*
X25070Y18532D02*
X25110Y18612D01*
X25070Y18692D01*
X25150Y18652D01*
X25230Y18692D01*
X25190Y18612D01*
X25230Y18532D01*
X25150Y18572D01*
X25070Y18532D01*
X32520Y3820D02*
X32560Y3900D01*
X32520Y3980D01*
X32600Y3940D01*
X32680Y3980D01*
X32640Y3900D01*
X32680Y3820D01*
X32600Y3860D01*
X32520Y3820D01*
X35370Y20120D02*
X35410Y20200D01*
X35370Y20280D01*
X35450Y20240D01*
X35530Y20280D01*
X35490Y20200D01*
X35530Y20120D01*
X35450Y20160D01*
X35370Y20120D01*
X36608Y12408D02*
X36648Y12488D01*
X36608Y12568D01*
X36688Y12528D01*
X36768Y12568D01*
X36728Y12488D01*
X36768Y12408D01*
X36688Y12448D01*
X36608Y12408D01*
X20620Y770D02*
X20660Y850D01*
X20620Y930D01*
X20700Y890D01*
X20780Y930D01*
X20740Y850D01*
X20780Y770D01*
X20700Y810D01*
X20620Y770D01*
X36020Y13820D02*
X36060Y13900D01*
X36020Y13980D01*
X36100Y13940D01*
X36180Y13980D01*
X36140Y13900D01*
X36180Y13820D01*
X36100Y13860D01*
X36020Y13820D01*
X20770Y12020D02*
X20810Y12100D01*
X20770Y12180D01*
X20850Y12140D01*
X20930Y12180D01*
X20890Y12100D01*
X20930Y12020D01*
X20850Y12060D01*
X20770Y12020D01*
D32*
X15780Y18550D02*
G03*
X15780Y18550I-80J0D01*
G01*
Y17550D02*
G03*
X15780Y17550I-80J0D01*
G01*
Y16550D02*
G03*
X15780Y16550I-80J0D01*
G01*
Y15550D02*
G03*
X15780Y15550I-80J0D01*
G01*
Y14550D02*
G03*
X15780Y14550I-80J0D01*
G01*
Y13550D02*
G03*
X15780Y13550I-80J0D01*
G01*
Y12550D02*
G03*
X15780Y12550I-80J0D01*
G01*
Y11550D02*
G03*
X15780Y11550I-80J0D01*
G01*
Y10550D02*
G03*
X15780Y10550I-80J0D01*
G01*
Y9550D02*
G03*
X15780Y9550I-80J0D01*
G01*
Y8550D02*
G03*
X15780Y8550I-80J0D01*
G01*
Y7550D02*
G03*
X15780Y7550I-80J0D01*
G01*
Y6550D02*
G03*
X15780Y6550I-80J0D01*
G01*
Y5550D02*
G03*
X15780Y5550I-80J0D01*
G01*
Y4550D02*
G03*
X15780Y4550I-80J0D01*
G01*
Y3550D02*
G03*
X15780Y3550I-80J0D01*
G01*
X23780Y7550D02*
G03*
X23780Y7550I-80J0D01*
G01*
Y8550D02*
G03*
X23780Y8550I-80J0D01*
G01*
Y9550D02*
G03*
X23780Y9550I-80J0D01*
G01*
Y10550D02*
G03*
X23780Y10550I-80J0D01*
G01*
Y11550D02*
G03*
X23780Y11550I-80J0D01*
G01*
Y12550D02*
G03*
X23780Y12550I-80J0D01*
G01*
Y13550D02*
G03*
X23780Y13550I-80J0D01*
G01*
Y14550D02*
G03*
X23780Y14550I-80J0D01*
G01*
Y15550D02*
G03*
X23780Y15550I-80J0D01*
G01*
Y16550D02*
G03*
X23780Y16550I-80J0D01*
G01*
Y17550D02*
G03*
X23780Y17550I-80J0D01*
G01*
Y18550D02*
G03*
X23780Y18550I-80J0D01*
G01*
M02*
