G04*
G04 #@! TF.GenerationSoftware,Altium Limited,Altium Designer,21.0.8 (223)*
G04*
G04 Layer_Color=65535*
%FSLAX24Y24*%
%MOIN*%
G70*
G04*
G04 #@! TF.SameCoordinates,F666B87A-DE90-4157-A89C-B26E4A6581EA*
G04*
G04*
G04 #@! TF.FilePolarity,Positive*
G04*
G01*
G75*
%ADD10C,0.0100*%
%ADD11C,0.0079*%
G36*
X30534Y8472D02*
Y8458D01*
Y8444D01*
Y8430D01*
Y8416D01*
Y8402D01*
Y8388D01*
Y8374D01*
Y8360D01*
Y8346D01*
Y8332D01*
Y8318D01*
Y8304D01*
Y8290D01*
Y8276D01*
Y8262D01*
Y8248D01*
Y8234D01*
Y8220D01*
Y8206D01*
Y8192D01*
Y8178D01*
Y8164D01*
Y8150D01*
Y8136D01*
Y8122D01*
Y8108D01*
Y8094D01*
Y8080D01*
Y8066D01*
Y8052D01*
Y8038D01*
Y8024D01*
Y8010D01*
Y7996D01*
Y7982D01*
Y7968D01*
Y7954D01*
Y7940D01*
Y7926D01*
Y7912D01*
Y7898D01*
Y7884D01*
Y7870D01*
Y7856D01*
Y7842D01*
Y7828D01*
Y7814D01*
Y7800D01*
Y7786D01*
Y7772D01*
Y7758D01*
Y7744D01*
Y7730D01*
Y7716D01*
Y7702D01*
Y7688D01*
Y7674D01*
Y7660D01*
Y7646D01*
Y7632D01*
Y7618D01*
Y7604D01*
Y7590D01*
Y7576D01*
Y7562D01*
Y7548D01*
Y7534D01*
Y7520D01*
Y7506D01*
Y7492D01*
Y7478D01*
Y7464D01*
Y7450D01*
Y7436D01*
Y7422D01*
Y7408D01*
Y7394D01*
Y7380D01*
Y7366D01*
Y7352D01*
Y7338D01*
Y7324D01*
Y7310D01*
Y7296D01*
Y7282D01*
Y7268D01*
Y7254D01*
Y7240D01*
Y7226D01*
Y7212D01*
Y7198D01*
Y7184D01*
Y7170D01*
Y7156D01*
Y7142D01*
Y7128D01*
Y7114D01*
Y7100D01*
Y7086D01*
Y7072D01*
Y7058D01*
Y7044D01*
Y7030D01*
Y7016D01*
Y7002D01*
Y6988D01*
Y6974D01*
Y6960D01*
Y6946D01*
Y6932D01*
Y6918D01*
Y6904D01*
Y6890D01*
Y6876D01*
Y6862D01*
Y6848D01*
Y6834D01*
Y6820D01*
Y6806D01*
Y6792D01*
Y6778D01*
Y6764D01*
Y6750D01*
Y6736D01*
Y6722D01*
Y6708D01*
Y6694D01*
Y6680D01*
Y6666D01*
Y6652D01*
Y6638D01*
Y6624D01*
Y6610D01*
Y6596D01*
Y6582D01*
Y6568D01*
Y6554D01*
Y6540D01*
Y6526D01*
Y6512D01*
Y6498D01*
Y6484D01*
Y6470D01*
Y6456D01*
Y6442D01*
Y6428D01*
Y6414D01*
Y6400D01*
Y6386D01*
Y6372D01*
Y6358D01*
Y6344D01*
Y6330D01*
Y6316D01*
Y6302D01*
Y6288D01*
Y6274D01*
Y6260D01*
Y6246D01*
Y6232D01*
Y6218D01*
Y6204D01*
Y6190D01*
Y6176D01*
Y6162D01*
Y6148D01*
Y6134D01*
Y6120D01*
Y6106D01*
Y6092D01*
Y6078D01*
Y6064D01*
Y6050D01*
Y6036D01*
Y6022D01*
Y6008D01*
Y5994D01*
Y5980D01*
Y5966D01*
Y5952D01*
Y5938D01*
Y5924D01*
Y5910D01*
Y5896D01*
Y5882D01*
Y5868D01*
Y5854D01*
Y5840D01*
Y5826D01*
Y5812D01*
Y5798D01*
Y5784D01*
Y5770D01*
Y5756D01*
Y5742D01*
Y5728D01*
Y5714D01*
Y5700D01*
Y5686D01*
Y5672D01*
Y5658D01*
Y5644D01*
Y5630D01*
Y5616D01*
Y5602D01*
Y5588D01*
Y5574D01*
Y5560D01*
Y5546D01*
Y5532D01*
Y5518D01*
Y5504D01*
Y5490D01*
Y5476D01*
Y5462D01*
Y5448D01*
Y5434D01*
Y5420D01*
Y5406D01*
Y5392D01*
Y5378D01*
Y5364D01*
Y5350D01*
Y5336D01*
Y5322D01*
Y5308D01*
Y5294D01*
Y5280D01*
Y5266D01*
Y5252D01*
Y5238D01*
Y5224D01*
Y5210D01*
Y5196D01*
Y5182D01*
Y5168D01*
Y5154D01*
Y5140D01*
Y5126D01*
Y5112D01*
Y5098D01*
Y5084D01*
Y5070D01*
Y5056D01*
Y5042D01*
Y5028D01*
Y5014D01*
Y5000D01*
Y4986D01*
Y4972D01*
Y4958D01*
Y4944D01*
Y4930D01*
Y4916D01*
Y4902D01*
Y4888D01*
Y4874D01*
Y4860D01*
Y4846D01*
Y4832D01*
Y4818D01*
Y4804D01*
Y4790D01*
Y4776D01*
Y4762D01*
Y4748D01*
Y4734D01*
Y4720D01*
Y4706D01*
Y4692D01*
Y4678D01*
Y4664D01*
Y4650D01*
Y4636D01*
Y4622D01*
Y4608D01*
Y4594D01*
Y4580D01*
Y4566D01*
Y4552D01*
Y4538D01*
Y4524D01*
Y4510D01*
Y4496D01*
Y4482D01*
Y4468D01*
Y4454D01*
Y4440D01*
Y4426D01*
Y4412D01*
Y4398D01*
Y4384D01*
Y4370D01*
Y4356D01*
Y4342D01*
Y4328D01*
Y4314D01*
Y4300D01*
Y4286D01*
Y4272D01*
Y4258D01*
Y4244D01*
Y4230D01*
Y4216D01*
Y4202D01*
Y4188D01*
Y4174D01*
Y4160D01*
Y4146D01*
Y4132D01*
Y4118D01*
Y4104D01*
Y4090D01*
Y4076D01*
Y4062D01*
Y4048D01*
Y4034D01*
Y4020D01*
Y4006D01*
Y3992D01*
Y3978D01*
Y3964D01*
Y3950D01*
Y3936D01*
Y3922D01*
Y3908D01*
Y3894D01*
Y3880D01*
Y3866D01*
Y3852D01*
Y3838D01*
Y3824D01*
Y3810D01*
Y3796D01*
Y3782D01*
Y3768D01*
Y3754D01*
Y3740D01*
Y3726D01*
Y3712D01*
Y3698D01*
Y3684D01*
Y3670D01*
Y3656D01*
Y3642D01*
Y3628D01*
Y3614D01*
Y3600D01*
Y3586D01*
Y3572D01*
Y3558D01*
Y3544D01*
Y3530D01*
Y3516D01*
Y3502D01*
Y3488D01*
Y3474D01*
Y3460D01*
Y3446D01*
Y3432D01*
Y3418D01*
Y3404D01*
Y3390D01*
Y3376D01*
Y3362D01*
Y3348D01*
X25410D01*
Y3362D01*
Y3376D01*
Y3390D01*
Y3404D01*
Y3418D01*
Y3432D01*
Y3446D01*
Y3460D01*
Y3474D01*
Y3488D01*
Y3502D01*
Y3516D01*
Y3530D01*
Y3544D01*
Y3558D01*
Y3572D01*
Y3586D01*
Y3600D01*
Y3614D01*
Y3628D01*
Y3642D01*
Y3656D01*
Y3670D01*
Y3684D01*
Y3698D01*
Y3712D01*
Y3726D01*
Y3740D01*
Y3754D01*
Y3768D01*
Y3782D01*
Y3796D01*
Y3810D01*
Y3824D01*
Y3838D01*
Y3852D01*
Y3866D01*
Y3880D01*
Y3894D01*
Y3908D01*
Y3922D01*
Y3936D01*
Y3950D01*
Y3964D01*
Y3978D01*
Y3992D01*
Y4006D01*
Y4020D01*
Y4034D01*
Y4048D01*
Y4062D01*
Y4076D01*
Y4090D01*
Y4104D01*
Y4118D01*
Y4132D01*
Y4146D01*
Y4160D01*
Y4174D01*
Y4188D01*
Y4202D01*
Y4216D01*
Y4230D01*
Y4244D01*
Y4258D01*
Y4272D01*
Y4286D01*
Y4300D01*
Y4314D01*
Y4328D01*
Y4342D01*
Y4356D01*
Y4370D01*
Y4384D01*
Y4398D01*
Y4412D01*
Y4426D01*
Y4440D01*
Y4454D01*
Y4468D01*
Y4482D01*
Y4496D01*
Y4510D01*
Y4524D01*
Y4538D01*
Y4552D01*
Y4566D01*
Y4580D01*
Y4594D01*
Y4608D01*
Y4622D01*
Y4636D01*
Y4650D01*
Y4664D01*
Y4678D01*
Y4692D01*
Y4706D01*
Y4720D01*
Y4734D01*
Y4748D01*
Y4762D01*
Y4776D01*
Y4790D01*
Y4804D01*
Y4818D01*
Y4832D01*
Y4846D01*
Y4860D01*
Y4874D01*
Y4888D01*
Y4902D01*
Y4916D01*
Y4930D01*
Y4944D01*
Y4958D01*
Y4972D01*
Y4986D01*
Y5000D01*
Y5014D01*
Y5028D01*
Y5042D01*
Y5056D01*
Y5070D01*
Y5084D01*
Y5098D01*
Y5112D01*
Y5126D01*
Y5140D01*
Y5154D01*
Y5168D01*
Y5182D01*
Y5196D01*
Y5210D01*
Y5224D01*
Y5238D01*
Y5252D01*
Y5266D01*
Y5280D01*
Y5294D01*
Y5308D01*
Y5322D01*
Y5336D01*
Y5350D01*
Y5364D01*
Y5378D01*
Y5392D01*
Y5406D01*
Y5420D01*
Y5434D01*
Y5448D01*
Y5462D01*
Y5476D01*
Y5490D01*
Y5504D01*
Y5518D01*
Y5532D01*
Y5546D01*
Y5560D01*
Y5574D01*
Y5588D01*
Y5602D01*
Y5616D01*
Y5630D01*
Y5644D01*
Y5658D01*
Y5672D01*
Y5686D01*
Y5700D01*
Y5714D01*
Y5728D01*
Y5742D01*
Y5756D01*
Y5770D01*
Y5784D01*
Y5798D01*
Y5812D01*
Y5826D01*
Y5840D01*
Y5854D01*
Y5868D01*
Y5882D01*
Y5896D01*
Y5910D01*
Y5924D01*
Y5938D01*
Y5952D01*
Y5966D01*
Y5980D01*
Y5994D01*
Y6008D01*
Y6022D01*
Y6036D01*
Y6050D01*
Y6064D01*
Y6078D01*
Y6092D01*
Y6106D01*
Y6120D01*
Y6134D01*
Y6148D01*
Y6162D01*
Y6176D01*
Y6190D01*
Y6204D01*
Y6218D01*
Y6232D01*
Y6246D01*
Y6260D01*
Y6274D01*
Y6288D01*
Y6302D01*
Y6316D01*
Y6330D01*
Y6344D01*
Y6358D01*
Y6372D01*
Y6386D01*
Y6400D01*
Y6414D01*
Y6428D01*
Y6442D01*
Y6456D01*
Y6470D01*
Y6484D01*
Y6498D01*
Y6512D01*
Y6526D01*
Y6540D01*
Y6554D01*
Y6568D01*
Y6582D01*
Y6596D01*
Y6610D01*
Y6624D01*
Y6638D01*
Y6652D01*
Y6666D01*
Y6680D01*
Y6694D01*
Y6708D01*
Y6722D01*
Y6736D01*
Y6750D01*
Y6764D01*
Y6778D01*
Y6792D01*
Y6806D01*
Y6820D01*
Y6834D01*
Y6848D01*
Y6862D01*
Y6876D01*
Y6890D01*
Y6904D01*
Y6918D01*
Y6932D01*
Y6946D01*
Y6960D01*
Y6974D01*
Y6988D01*
Y7002D01*
Y7016D01*
Y7030D01*
Y7044D01*
Y7058D01*
Y7072D01*
Y7086D01*
Y7100D01*
Y7114D01*
Y7128D01*
Y7142D01*
Y7156D01*
Y7170D01*
Y7184D01*
Y7198D01*
Y7212D01*
Y7226D01*
Y7240D01*
Y7254D01*
Y7268D01*
Y7282D01*
Y7296D01*
Y7310D01*
Y7324D01*
Y7338D01*
Y7352D01*
Y7366D01*
Y7380D01*
Y7394D01*
Y7408D01*
Y7422D01*
Y7436D01*
Y7450D01*
Y7464D01*
Y7478D01*
Y7492D01*
Y7506D01*
Y7520D01*
Y7534D01*
Y7548D01*
Y7562D01*
Y7576D01*
Y7590D01*
Y7604D01*
Y7618D01*
Y7632D01*
Y7646D01*
Y7660D01*
Y7674D01*
Y7688D01*
Y7702D01*
Y7716D01*
Y7730D01*
Y7744D01*
Y7758D01*
Y7772D01*
Y7786D01*
Y7800D01*
Y7814D01*
Y7828D01*
Y7842D01*
Y7856D01*
Y7870D01*
Y7884D01*
Y7898D01*
Y7912D01*
Y7926D01*
Y7940D01*
Y7954D01*
Y7968D01*
Y7982D01*
Y7996D01*
Y8010D01*
Y8024D01*
Y8038D01*
Y8052D01*
Y8066D01*
Y8080D01*
Y8094D01*
Y8108D01*
Y8122D01*
Y8136D01*
Y8150D01*
Y8164D01*
Y8178D01*
Y8192D01*
Y8206D01*
Y8220D01*
Y8234D01*
Y8248D01*
Y8262D01*
Y8276D01*
Y8290D01*
Y8304D01*
Y8318D01*
Y8332D01*
Y8346D01*
Y8360D01*
Y8374D01*
Y8388D01*
Y8402D01*
Y8416D01*
Y8430D01*
Y8444D01*
Y8458D01*
Y8472D01*
Y8486D01*
X30534D01*
Y8472D01*
D02*
G37*
G36*
X30366Y3026D02*
X30408D01*
Y3012D01*
X30422D01*
Y2998D01*
Y2984D01*
Y2970D01*
X30408D01*
Y2956D01*
X30380D01*
Y2970D01*
X30338D01*
Y2984D01*
X30296D01*
Y2970D01*
X30282D01*
Y2956D01*
Y2942D01*
X30296D01*
Y2928D01*
X30338D01*
Y2914D01*
X30380D01*
Y2900D01*
X30394D01*
Y2886D01*
X30422D01*
Y2872D01*
Y2858D01*
Y2844D01*
X30436D01*
Y2830D01*
Y2816D01*
X30422D01*
Y2802D01*
Y2788D01*
X30408D01*
Y2774D01*
X30394D01*
Y2760D01*
X30366D01*
Y2746D01*
X30254D01*
Y2760D01*
X30226D01*
Y2774D01*
X30198D01*
Y2788D01*
X30184D01*
Y2802D01*
X30198D01*
Y2816D01*
Y2830D01*
X30212D01*
Y2844D01*
X30226D01*
Y2830D01*
X30240D01*
Y2816D01*
X30282D01*
Y2802D01*
X30338D01*
Y2816D01*
X30352D01*
Y2830D01*
Y2844D01*
X30338D01*
Y2858D01*
X30296D01*
Y2872D01*
X30254D01*
Y2886D01*
X30226D01*
Y2900D01*
X30212D01*
Y2914D01*
Y2928D01*
X30198D01*
Y2942D01*
Y2956D01*
Y2970D01*
X30212D01*
Y2984D01*
Y2998D01*
X30226D01*
Y3012D01*
X30240D01*
Y3026D01*
X30282D01*
Y3040D01*
X30366D01*
Y3026D01*
D02*
G37*
G36*
X26894D02*
X26936D01*
Y3012D01*
X26964D01*
Y2998D01*
Y2984D01*
X26950D01*
Y2970D01*
Y2956D01*
X26908D01*
Y2970D01*
X26866D01*
Y2984D01*
X26824D01*
Y2970D01*
X26810D01*
Y2956D01*
Y2942D01*
X26824D01*
Y2928D01*
X26866D01*
Y2914D01*
X26908D01*
Y2900D01*
X26936D01*
Y2886D01*
X26950D01*
Y2872D01*
X26964D01*
Y2858D01*
Y2844D01*
Y2830D01*
Y2816D01*
Y2802D01*
Y2788D01*
X26950D01*
Y2774D01*
X26936D01*
Y2760D01*
X26908D01*
Y2746D01*
X26796D01*
Y2760D01*
X26754D01*
Y2774D01*
X26740D01*
Y2788D01*
X26726D01*
Y2802D01*
Y2816D01*
X26740D01*
Y2830D01*
Y2844D01*
X26754D01*
Y2830D01*
X26782D01*
Y2816D01*
X26810D01*
Y2802D01*
X26880D01*
Y2816D01*
X26894D01*
Y2830D01*
Y2844D01*
X26880D01*
Y2858D01*
X26838D01*
Y2872D01*
X26796D01*
Y2886D01*
X26768D01*
Y2900D01*
X26754D01*
Y2914D01*
X26740D01*
Y2928D01*
Y2942D01*
Y2956D01*
Y2970D01*
Y2984D01*
X26754D01*
Y2998D01*
Y3012D01*
X26782D01*
Y3026D01*
X26810D01*
Y3040D01*
X26894D01*
Y3026D01*
D02*
G37*
G36*
X26278D02*
X26264D01*
Y3012D01*
Y2998D01*
X26250D01*
Y2984D01*
X26236D01*
Y2970D01*
X26222D01*
Y2956D01*
X26208D01*
Y2942D01*
X26194D01*
Y2928D01*
X26180D01*
Y2914D01*
Y2900D01*
X26194D01*
Y2886D01*
X26208D01*
Y2872D01*
Y2858D01*
X26222D01*
Y2844D01*
X26236D01*
Y2830D01*
Y2816D01*
X26250D01*
Y2802D01*
X26264D01*
Y2788D01*
Y2774D01*
X26278D01*
Y2760D01*
X26292D01*
Y2746D01*
X26208D01*
Y2760D01*
X26194D01*
Y2774D01*
X26180D01*
Y2788D01*
X26166D01*
Y2802D01*
Y2816D01*
X26152D01*
Y2830D01*
X26138D01*
Y2844D01*
Y2858D01*
X26124D01*
Y2844D01*
X26110D01*
Y2830D01*
X26096D01*
Y2816D01*
Y2802D01*
Y2788D01*
Y2774D01*
Y2760D01*
Y2746D01*
X26012D01*
Y2760D01*
Y2774D01*
Y2788D01*
Y2802D01*
Y2816D01*
Y2830D01*
Y2844D01*
Y2858D01*
Y2872D01*
Y2886D01*
Y2900D01*
Y2914D01*
Y2928D01*
Y2942D01*
Y2956D01*
Y2970D01*
Y2984D01*
Y2998D01*
Y3012D01*
Y3026D01*
X26026D01*
Y3040D01*
X26082D01*
Y3026D01*
X26096D01*
Y3012D01*
Y2998D01*
Y2984D01*
Y2970D01*
Y2956D01*
Y2942D01*
Y2928D01*
X26110D01*
Y2942D01*
X26124D01*
Y2956D01*
X26138D01*
Y2970D01*
X26152D01*
Y2984D01*
X26166D01*
Y2998D01*
X26180D01*
Y3012D01*
X26194D01*
Y3026D01*
X26208D01*
Y3040D01*
X26278D01*
Y3026D01*
D02*
G37*
G36*
X29988D02*
Y3012D01*
Y2998D01*
Y2984D01*
Y2970D01*
Y2956D01*
Y2942D01*
Y2928D01*
Y2914D01*
Y2900D01*
Y2886D01*
Y2872D01*
Y2858D01*
Y2844D01*
Y2830D01*
Y2816D01*
Y2802D01*
Y2788D01*
Y2774D01*
Y2760D01*
Y2746D01*
X29918D01*
Y2760D01*
X29904D01*
Y2774D01*
X29890D01*
Y2788D01*
Y2802D01*
X29876D01*
Y2816D01*
X29862D01*
Y2830D01*
X29848D01*
Y2844D01*
Y2858D01*
X29834D01*
Y2872D01*
X29820D01*
Y2886D01*
X29806D01*
Y2900D01*
Y2914D01*
X29792D01*
Y2900D01*
Y2886D01*
Y2872D01*
Y2858D01*
Y2844D01*
Y2830D01*
Y2816D01*
Y2802D01*
Y2788D01*
Y2774D01*
Y2760D01*
Y2746D01*
X29722D01*
Y2760D01*
Y2774D01*
Y2788D01*
Y2802D01*
Y2816D01*
Y2830D01*
Y2844D01*
Y2858D01*
Y2872D01*
Y2886D01*
Y2900D01*
Y2914D01*
Y2928D01*
Y2942D01*
Y2956D01*
Y2970D01*
Y2984D01*
Y2998D01*
Y3012D01*
Y3026D01*
Y3040D01*
X29778D01*
Y3026D01*
X29792D01*
Y3012D01*
X29806D01*
Y2998D01*
X29820D01*
Y2984D01*
Y2970D01*
X29834D01*
Y2956D01*
X29848D01*
Y2942D01*
X29862D01*
Y2928D01*
Y2914D01*
X29876D01*
Y2900D01*
X29890D01*
Y2886D01*
X29904D01*
Y2872D01*
Y2858D01*
X29918D01*
Y2872D01*
Y2886D01*
Y2900D01*
Y2914D01*
Y2928D01*
Y2942D01*
Y2956D01*
Y2970D01*
Y2984D01*
Y2998D01*
Y3012D01*
Y3026D01*
Y3040D01*
X29988D01*
Y3026D01*
D02*
G37*
G36*
X25788D02*
X25802D01*
Y3012D01*
Y2998D01*
Y2984D01*
Y2970D01*
Y2956D01*
Y2942D01*
Y2928D01*
Y2914D01*
Y2900D01*
Y2886D01*
Y2872D01*
Y2858D01*
Y2844D01*
Y2830D01*
Y2816D01*
Y2802D01*
Y2788D01*
Y2774D01*
Y2760D01*
Y2746D01*
X25732D01*
Y2760D01*
X25718D01*
Y2774D01*
X25704D01*
Y2788D01*
X25690D01*
Y2802D01*
Y2816D01*
X25676D01*
Y2830D01*
X25662D01*
Y2844D01*
X25648D01*
Y2858D01*
Y2872D01*
X25634D01*
Y2886D01*
X25620D01*
Y2900D01*
X25606D01*
Y2914D01*
X25592D01*
Y2900D01*
Y2886D01*
Y2872D01*
Y2858D01*
Y2844D01*
Y2830D01*
Y2816D01*
Y2802D01*
Y2788D01*
Y2774D01*
Y2760D01*
Y2746D01*
X25536D01*
Y2760D01*
Y2774D01*
Y2788D01*
Y2802D01*
Y2816D01*
Y2830D01*
Y2844D01*
Y2858D01*
Y2872D01*
Y2886D01*
Y2900D01*
Y2914D01*
Y2928D01*
Y2942D01*
Y2956D01*
Y2970D01*
Y2984D01*
Y2998D01*
Y3012D01*
Y3026D01*
Y3040D01*
X25592D01*
Y3026D01*
X25606D01*
Y3012D01*
X25620D01*
Y2998D01*
Y2984D01*
X25634D01*
Y2970D01*
X25648D01*
Y2956D01*
X25662D01*
Y2942D01*
Y2928D01*
X25676D01*
Y2914D01*
X25690D01*
Y2900D01*
X25704D01*
Y2886D01*
Y2872D01*
X25718D01*
Y2858D01*
X25732D01*
Y2872D01*
Y2886D01*
Y2900D01*
Y2914D01*
Y2928D01*
Y2942D01*
Y2956D01*
Y2970D01*
Y2984D01*
Y2998D01*
Y3012D01*
Y3026D01*
Y3040D01*
X25788D01*
Y3026D01*
D02*
G37*
G36*
X28308D02*
Y3012D01*
Y2998D01*
Y2984D01*
Y2970D01*
Y2956D01*
Y2942D01*
Y2928D01*
Y2914D01*
Y2900D01*
Y2886D01*
Y2872D01*
Y2858D01*
Y2844D01*
Y2830D01*
Y2816D01*
X28294D01*
Y2802D01*
Y2788D01*
X28280D01*
Y2774D01*
X28266D01*
Y2760D01*
X28238D01*
Y2746D01*
X28126D01*
Y2760D01*
X28098D01*
Y2774D01*
X28084D01*
Y2788D01*
X28070D01*
Y2802D01*
X28056D01*
Y2816D01*
Y2830D01*
Y2844D01*
X28042D01*
Y2858D01*
Y2872D01*
Y2886D01*
Y2900D01*
Y2914D01*
Y2928D01*
Y2942D01*
Y2956D01*
Y2970D01*
Y2984D01*
Y2998D01*
Y3012D01*
Y3026D01*
X28056D01*
Y3040D01*
X28112D01*
Y3026D01*
Y3012D01*
Y2998D01*
Y2984D01*
Y2970D01*
Y2956D01*
Y2942D01*
Y2928D01*
Y2914D01*
Y2900D01*
Y2886D01*
Y2872D01*
Y2858D01*
X28126D01*
Y2844D01*
Y2830D01*
X28140D01*
Y2816D01*
X28154D01*
Y2802D01*
X28210D01*
Y2816D01*
X28224D01*
Y2830D01*
X28238D01*
Y2844D01*
Y2858D01*
Y2872D01*
Y2886D01*
Y2900D01*
Y2914D01*
Y2928D01*
Y2942D01*
Y2956D01*
Y2970D01*
Y2984D01*
Y2998D01*
Y3012D01*
Y3026D01*
Y3040D01*
X28308D01*
Y3026D01*
D02*
G37*
G36*
X29400D02*
X29442D01*
Y3012D01*
X29456D01*
Y2998D01*
X29484D01*
Y2984D01*
Y2970D01*
X29498D01*
Y2956D01*
X29512D01*
Y2942D01*
Y2928D01*
Y2914D01*
Y2900D01*
Y2886D01*
Y2872D01*
Y2858D01*
Y2844D01*
Y2830D01*
X29498D01*
Y2816D01*
Y2802D01*
X29484D01*
Y2788D01*
X29470D01*
Y2774D01*
X29456D01*
Y2760D01*
X29414D01*
Y2746D01*
X29302D01*
Y2760D01*
X29274D01*
Y2774D01*
X29260D01*
Y2788D01*
X29246D01*
Y2802D01*
X29232D01*
Y2816D01*
X29218D01*
Y2830D01*
Y2844D01*
Y2858D01*
X29204D01*
Y2872D01*
Y2886D01*
Y2900D01*
Y2914D01*
Y2928D01*
X29218D01*
Y2942D01*
Y2956D01*
X29232D01*
Y2970D01*
Y2984D01*
X29246D01*
Y2998D01*
X29260D01*
Y3012D01*
X29288D01*
Y3026D01*
X29330D01*
Y3040D01*
X29400D01*
Y3026D01*
D02*
G37*
G36*
X29008D02*
Y3012D01*
Y2998D01*
Y2984D01*
Y2970D01*
Y2956D01*
Y2942D01*
Y2928D01*
Y2914D01*
Y2900D01*
Y2886D01*
Y2872D01*
Y2858D01*
Y2844D01*
Y2830D01*
Y2816D01*
Y2802D01*
Y2788D01*
Y2774D01*
Y2760D01*
Y2746D01*
X28938D01*
Y2760D01*
Y2774D01*
Y2788D01*
Y2802D01*
Y2816D01*
Y2830D01*
Y2844D01*
Y2858D01*
Y2872D01*
Y2886D01*
Y2900D01*
Y2914D01*
Y2928D01*
Y2942D01*
Y2956D01*
Y2970D01*
Y2984D01*
Y2998D01*
Y3012D01*
Y3026D01*
Y3040D01*
X29008D01*
Y3026D01*
D02*
G37*
G36*
X28742D02*
Y3012D01*
Y2998D01*
Y2984D01*
Y2970D01*
X28658D01*
Y2956D01*
Y2942D01*
Y2928D01*
Y2914D01*
Y2900D01*
Y2886D01*
Y2872D01*
Y2858D01*
Y2844D01*
Y2830D01*
Y2816D01*
Y2802D01*
Y2788D01*
Y2774D01*
Y2760D01*
Y2746D01*
X28588D01*
Y2760D01*
Y2774D01*
Y2788D01*
Y2802D01*
Y2816D01*
Y2830D01*
Y2844D01*
Y2858D01*
Y2872D01*
Y2886D01*
Y2900D01*
Y2914D01*
Y2928D01*
Y2942D01*
Y2956D01*
Y2970D01*
X28504D01*
Y2984D01*
Y2998D01*
Y3012D01*
Y3026D01*
Y3040D01*
X28742D01*
Y3026D01*
D02*
G37*
G36*
X27720D02*
X27734D01*
Y3012D01*
Y2998D01*
Y2984D01*
Y2970D01*
Y2956D01*
Y2942D01*
Y2928D01*
Y2914D01*
Y2900D01*
Y2886D01*
Y2872D01*
Y2858D01*
Y2844D01*
Y2830D01*
Y2816D01*
Y2802D01*
X27860D01*
Y2788D01*
Y2774D01*
Y2760D01*
Y2746D01*
X27664D01*
Y2760D01*
Y2774D01*
Y2788D01*
Y2802D01*
Y2816D01*
Y2830D01*
Y2844D01*
Y2858D01*
Y2872D01*
Y2886D01*
Y2900D01*
Y2914D01*
Y2928D01*
Y2942D01*
Y2956D01*
Y2970D01*
Y2984D01*
Y2998D01*
Y3012D01*
Y3026D01*
Y3040D01*
X27720D01*
Y3026D01*
D02*
G37*
G36*
X27342D02*
X27384D01*
Y3012D01*
X27398D01*
Y2998D01*
X27426D01*
Y2984D01*
Y2970D01*
X27440D01*
Y2956D01*
X27454D01*
Y2942D01*
Y2928D01*
Y2914D01*
Y2900D01*
Y2886D01*
Y2872D01*
Y2858D01*
Y2844D01*
Y2830D01*
X27440D01*
Y2816D01*
Y2802D01*
X27426D01*
Y2788D01*
X27412D01*
Y2774D01*
X27398D01*
Y2760D01*
X27356D01*
Y2746D01*
X27244D01*
Y2760D01*
X27216D01*
Y2774D01*
X27202D01*
Y2788D01*
X27188D01*
Y2802D01*
X27174D01*
Y2816D01*
X27160D01*
Y2830D01*
Y2844D01*
Y2858D01*
X27146D01*
Y2872D01*
Y2886D01*
Y2900D01*
Y2914D01*
Y2928D01*
X27160D01*
Y2942D01*
Y2956D01*
X27174D01*
Y2970D01*
Y2984D01*
X27188D01*
Y2998D01*
X27202D01*
Y3012D01*
X27230D01*
Y3026D01*
X27272D01*
Y3040D01*
X27342D01*
Y3026D01*
D02*
G37*
%LPC*%
G36*
X30212Y8164D02*
X25732D01*
Y8150D01*
Y8136D01*
Y8122D01*
Y8108D01*
Y8094D01*
Y8080D01*
Y8066D01*
Y8052D01*
Y8038D01*
Y8024D01*
Y8010D01*
Y7996D01*
Y7982D01*
Y7968D01*
Y7954D01*
Y7940D01*
Y7926D01*
Y7912D01*
Y7898D01*
Y7884D01*
Y7870D01*
Y7856D01*
Y7842D01*
Y7828D01*
Y7814D01*
Y7800D01*
Y7786D01*
Y7772D01*
Y7758D01*
Y7744D01*
Y7730D01*
Y7716D01*
Y7702D01*
Y7688D01*
Y7674D01*
Y7660D01*
Y7646D01*
Y7632D01*
Y7618D01*
Y7604D01*
Y7590D01*
Y7576D01*
Y7562D01*
Y7548D01*
Y7534D01*
Y7520D01*
Y7506D01*
Y7492D01*
Y7478D01*
Y7464D01*
Y7450D01*
Y7436D01*
Y7422D01*
Y7408D01*
Y7394D01*
Y7380D01*
Y7366D01*
Y7352D01*
Y7338D01*
Y7324D01*
Y7310D01*
Y7296D01*
Y7282D01*
Y7268D01*
Y7254D01*
Y7240D01*
Y7226D01*
Y7212D01*
Y7198D01*
Y7184D01*
Y7170D01*
Y7156D01*
Y7142D01*
Y7128D01*
Y7114D01*
Y7100D01*
Y7086D01*
Y7072D01*
Y7058D01*
Y7044D01*
Y7030D01*
Y7016D01*
Y7002D01*
Y6988D01*
Y6974D01*
Y6960D01*
Y6946D01*
Y6932D01*
Y6918D01*
Y6904D01*
Y6890D01*
Y6876D01*
Y6862D01*
Y6848D01*
Y6834D01*
Y6820D01*
Y6806D01*
Y6792D01*
Y6778D01*
Y6764D01*
Y6750D01*
Y6736D01*
Y6722D01*
Y6708D01*
Y6694D01*
Y6680D01*
Y6666D01*
Y6652D01*
Y6638D01*
Y6624D01*
Y6610D01*
Y6596D01*
Y6582D01*
Y6568D01*
Y6554D01*
Y6540D01*
Y6526D01*
Y6512D01*
Y6498D01*
Y6484D01*
Y6470D01*
Y6456D01*
Y6442D01*
Y6428D01*
Y6414D01*
Y6400D01*
Y6386D01*
Y6372D01*
Y6358D01*
Y6344D01*
Y6330D01*
Y6316D01*
Y6302D01*
Y6288D01*
Y6274D01*
Y6260D01*
Y6246D01*
Y6232D01*
Y6218D01*
Y6204D01*
Y6190D01*
Y6176D01*
Y6162D01*
Y6148D01*
Y6134D01*
Y6120D01*
Y6106D01*
Y6092D01*
Y6078D01*
Y6064D01*
Y6050D01*
Y6036D01*
Y6022D01*
Y6008D01*
Y5994D01*
Y5980D01*
Y5966D01*
Y5952D01*
Y5938D01*
Y5924D01*
Y5910D01*
Y5896D01*
Y5882D01*
Y5868D01*
Y5854D01*
Y5840D01*
Y5826D01*
Y5812D01*
Y5798D01*
Y5784D01*
Y5770D01*
Y5756D01*
Y5742D01*
Y5728D01*
Y5714D01*
Y5700D01*
Y5686D01*
Y5672D01*
Y5658D01*
Y5644D01*
Y5630D01*
Y5616D01*
Y5602D01*
Y5588D01*
Y5574D01*
Y5560D01*
Y5546D01*
Y5532D01*
Y5518D01*
Y5504D01*
Y5490D01*
Y5476D01*
Y5462D01*
Y5448D01*
Y5434D01*
Y5420D01*
Y5406D01*
Y5392D01*
Y5378D01*
Y5364D01*
Y5350D01*
Y5336D01*
Y5322D01*
Y5308D01*
Y5294D01*
Y5280D01*
Y5266D01*
Y5252D01*
Y5238D01*
Y5224D01*
Y5210D01*
Y5196D01*
Y5182D01*
Y5168D01*
Y5154D01*
Y5140D01*
Y5126D01*
Y5112D01*
Y5098D01*
Y5084D01*
Y5070D01*
Y5056D01*
Y5042D01*
Y5028D01*
Y5014D01*
Y5000D01*
Y4986D01*
Y4972D01*
Y4958D01*
Y4944D01*
Y4930D01*
Y4916D01*
Y4902D01*
Y4888D01*
Y4874D01*
Y4860D01*
Y4846D01*
Y4832D01*
Y4818D01*
Y4804D01*
Y4790D01*
Y4776D01*
Y4762D01*
Y4748D01*
Y4734D01*
Y4720D01*
Y4706D01*
Y4692D01*
Y4678D01*
Y4664D01*
Y4650D01*
Y4636D01*
Y4622D01*
Y4608D01*
Y4594D01*
Y4580D01*
Y4566D01*
Y4552D01*
Y4538D01*
Y4524D01*
Y4510D01*
Y4496D01*
Y4482D01*
Y4468D01*
Y4454D01*
Y4440D01*
Y4426D01*
Y4412D01*
Y4398D01*
Y4384D01*
Y4370D01*
Y4356D01*
Y4342D01*
Y4328D01*
Y4314D01*
Y4300D01*
Y4286D01*
Y4272D01*
Y4258D01*
Y4244D01*
Y4230D01*
Y4216D01*
Y4202D01*
Y4188D01*
Y4174D01*
Y4160D01*
Y4146D01*
Y4132D01*
Y4118D01*
Y4104D01*
Y4090D01*
Y4076D01*
Y4062D01*
Y4048D01*
Y4034D01*
Y4020D01*
Y4006D01*
Y3992D01*
Y3978D01*
Y3964D01*
Y3950D01*
Y3936D01*
Y3922D01*
Y3908D01*
Y3894D01*
Y3880D01*
Y3866D01*
Y3852D01*
Y3838D01*
Y3824D01*
Y3810D01*
Y3796D01*
Y3782D01*
Y3768D01*
Y3754D01*
Y3740D01*
Y3726D01*
Y3712D01*
Y3698D01*
Y3684D01*
Y3670D01*
X30212D01*
Y3684D01*
Y3698D01*
Y3712D01*
Y3726D01*
Y3740D01*
Y3754D01*
Y3768D01*
Y3782D01*
Y3796D01*
Y3810D01*
Y3824D01*
Y3838D01*
Y3852D01*
Y3866D01*
Y3880D01*
Y3894D01*
Y3908D01*
Y3922D01*
Y3936D01*
Y3950D01*
Y3964D01*
Y3978D01*
Y3992D01*
Y4006D01*
Y4020D01*
Y4034D01*
Y4048D01*
Y4062D01*
Y4076D01*
Y4090D01*
Y4104D01*
Y4118D01*
Y4132D01*
Y4146D01*
Y4160D01*
Y4174D01*
Y4188D01*
Y4202D01*
Y4216D01*
Y4230D01*
Y4244D01*
Y4258D01*
Y4272D01*
Y4286D01*
Y4300D01*
Y4314D01*
Y4328D01*
Y4342D01*
Y4356D01*
Y4370D01*
Y4384D01*
Y4398D01*
Y4412D01*
Y4426D01*
Y4440D01*
Y4454D01*
Y4468D01*
Y4482D01*
Y4496D01*
Y4510D01*
Y4524D01*
Y4538D01*
Y4552D01*
Y4566D01*
Y4580D01*
Y4594D01*
Y4608D01*
Y4622D01*
Y4636D01*
Y4650D01*
Y4664D01*
Y4678D01*
Y4692D01*
Y4706D01*
Y4720D01*
Y4734D01*
Y4748D01*
Y4762D01*
Y4776D01*
Y4790D01*
Y4804D01*
Y4818D01*
Y4832D01*
Y4846D01*
Y4860D01*
Y4874D01*
Y4888D01*
Y4902D01*
Y4916D01*
Y4930D01*
Y4944D01*
Y4958D01*
Y4972D01*
Y4986D01*
Y5000D01*
Y5014D01*
Y5028D01*
Y5042D01*
Y5056D01*
Y5070D01*
Y5084D01*
Y5098D01*
Y5112D01*
Y5126D01*
Y5140D01*
Y5154D01*
Y5168D01*
Y5182D01*
Y5196D01*
Y5210D01*
Y5224D01*
Y5238D01*
Y5252D01*
Y5266D01*
Y5280D01*
Y5294D01*
Y5308D01*
Y5322D01*
Y5336D01*
Y5350D01*
Y5364D01*
Y5378D01*
Y5392D01*
Y5406D01*
Y5420D01*
Y5434D01*
Y5448D01*
Y5462D01*
Y5476D01*
Y5490D01*
Y5504D01*
Y5518D01*
Y5532D01*
Y5546D01*
Y5560D01*
Y5574D01*
Y5588D01*
Y5602D01*
Y5616D01*
Y5630D01*
Y5644D01*
Y5658D01*
Y5672D01*
Y5686D01*
Y5700D01*
Y5714D01*
Y5728D01*
Y5742D01*
Y5756D01*
Y5770D01*
Y5784D01*
Y5798D01*
Y5812D01*
Y5826D01*
Y5840D01*
Y5854D01*
Y5868D01*
Y5882D01*
Y5896D01*
Y5910D01*
Y5924D01*
Y5938D01*
Y5952D01*
Y5966D01*
Y5980D01*
Y5994D01*
Y6008D01*
Y6022D01*
Y6036D01*
Y6050D01*
Y6064D01*
Y6078D01*
Y6092D01*
Y6106D01*
Y6120D01*
Y6134D01*
Y6148D01*
Y6162D01*
Y6176D01*
Y6190D01*
Y6204D01*
Y6218D01*
Y6232D01*
Y6246D01*
Y6260D01*
Y6274D01*
Y6288D01*
Y6302D01*
Y6316D01*
Y6330D01*
Y6344D01*
Y6358D01*
Y6372D01*
Y6386D01*
Y6400D01*
Y6414D01*
Y6428D01*
Y6442D01*
Y6456D01*
Y6470D01*
Y6484D01*
Y6498D01*
Y6512D01*
Y6526D01*
Y6540D01*
Y6554D01*
Y6568D01*
Y6582D01*
Y6596D01*
Y6610D01*
Y6624D01*
Y6638D01*
Y6652D01*
Y6666D01*
Y6680D01*
Y6694D01*
Y6708D01*
Y6722D01*
Y6736D01*
Y6750D01*
Y6764D01*
Y6778D01*
Y6792D01*
Y6806D01*
Y6820D01*
Y6834D01*
Y6848D01*
Y6862D01*
Y6876D01*
Y6890D01*
Y6904D01*
Y6918D01*
Y6932D01*
Y6946D01*
Y6960D01*
Y6974D01*
Y6988D01*
Y7002D01*
Y7016D01*
Y7030D01*
Y7044D01*
Y7058D01*
Y7072D01*
Y7086D01*
Y7100D01*
Y7114D01*
Y7128D01*
Y7142D01*
Y7156D01*
Y7170D01*
Y7184D01*
Y7198D01*
Y7212D01*
Y7226D01*
Y7240D01*
Y7254D01*
Y7268D01*
Y7282D01*
Y7296D01*
Y7310D01*
Y7324D01*
Y7338D01*
Y7352D01*
Y7366D01*
Y7380D01*
Y7394D01*
Y7408D01*
Y7422D01*
Y7436D01*
Y7450D01*
Y7464D01*
Y7478D01*
Y7492D01*
Y7506D01*
Y7520D01*
Y7534D01*
Y7548D01*
Y7562D01*
Y7576D01*
Y7590D01*
Y7604D01*
Y7618D01*
Y7632D01*
Y7646D01*
Y7660D01*
Y7674D01*
Y7688D01*
Y7702D01*
Y7716D01*
Y7730D01*
Y7744D01*
Y7758D01*
Y7772D01*
Y7786D01*
Y7800D01*
Y7814D01*
Y7828D01*
Y7842D01*
Y7856D01*
Y7870D01*
Y7884D01*
Y7898D01*
Y7912D01*
Y7926D01*
Y7940D01*
Y7954D01*
Y7968D01*
Y7982D01*
Y7996D01*
Y8010D01*
Y8024D01*
Y8038D01*
Y8052D01*
Y8066D01*
Y8080D01*
Y8094D01*
Y8108D01*
Y8122D01*
Y8136D01*
Y8150D01*
Y8164D01*
D02*
G37*
%LPD*%
G36*
X28616Y7828D02*
Y7814D01*
Y7800D01*
Y7786D01*
Y7772D01*
Y7758D01*
Y7744D01*
Y7730D01*
Y7716D01*
Y7702D01*
Y7688D01*
Y7674D01*
Y7660D01*
Y7646D01*
Y7632D01*
Y7618D01*
Y7604D01*
Y7590D01*
Y7576D01*
Y7562D01*
Y7548D01*
Y7534D01*
Y7520D01*
Y7506D01*
Y7492D01*
Y7478D01*
Y7464D01*
Y7450D01*
Y7436D01*
Y7422D01*
Y7408D01*
Y7394D01*
Y7380D01*
Y7366D01*
Y7352D01*
Y7338D01*
Y7324D01*
Y7310D01*
Y7296D01*
Y7282D01*
Y7268D01*
Y7254D01*
Y7240D01*
Y7226D01*
Y7212D01*
Y7198D01*
Y7184D01*
Y7170D01*
Y7156D01*
Y7142D01*
Y7128D01*
Y7114D01*
Y7100D01*
Y7086D01*
Y7072D01*
Y7058D01*
Y7044D01*
Y7030D01*
Y7016D01*
Y7002D01*
Y6988D01*
Y6974D01*
Y6960D01*
Y6946D01*
Y6932D01*
Y6918D01*
Y6904D01*
Y6890D01*
Y6876D01*
Y6862D01*
Y6848D01*
Y6834D01*
Y6820D01*
Y6806D01*
Y6792D01*
Y6778D01*
Y6764D01*
Y6750D01*
Y6736D01*
Y6722D01*
Y6708D01*
Y6694D01*
Y6680D01*
Y6666D01*
Y6652D01*
Y6638D01*
Y6624D01*
Y6610D01*
Y6596D01*
Y6582D01*
Y6568D01*
Y6554D01*
X29890D01*
Y6540D01*
Y6526D01*
Y6512D01*
Y6498D01*
Y6484D01*
Y6470D01*
Y6456D01*
Y6442D01*
Y6428D01*
Y6414D01*
Y6400D01*
Y6386D01*
Y6372D01*
Y6358D01*
Y6344D01*
Y6330D01*
Y6316D01*
Y6302D01*
Y6288D01*
Y6274D01*
Y6260D01*
Y6246D01*
Y6232D01*
Y6218D01*
Y6204D01*
Y6190D01*
Y6176D01*
Y6162D01*
Y6148D01*
Y6134D01*
Y6120D01*
Y6106D01*
Y6092D01*
Y6078D01*
Y6064D01*
Y6050D01*
Y6036D01*
Y6022D01*
Y6008D01*
Y5994D01*
Y5980D01*
Y5966D01*
Y5952D01*
Y5938D01*
Y5924D01*
Y5910D01*
Y5896D01*
Y5882D01*
Y5868D01*
Y5854D01*
Y5840D01*
Y5826D01*
Y5812D01*
Y5798D01*
Y5784D01*
Y5770D01*
Y5756D01*
Y5742D01*
Y5728D01*
Y5714D01*
Y5700D01*
Y5686D01*
Y5672D01*
Y5658D01*
Y5644D01*
Y5630D01*
Y5616D01*
Y5602D01*
Y5588D01*
Y5574D01*
Y5560D01*
Y5546D01*
Y5532D01*
Y5518D01*
Y5504D01*
Y5490D01*
Y5476D01*
Y5462D01*
Y5448D01*
Y5434D01*
Y5420D01*
Y5406D01*
Y5392D01*
Y5378D01*
Y5364D01*
Y5350D01*
Y5336D01*
Y5322D01*
Y5308D01*
Y5294D01*
Y5280D01*
X28616D01*
Y5266D01*
Y5252D01*
Y5238D01*
Y5224D01*
Y5210D01*
Y5196D01*
Y5182D01*
Y5168D01*
Y5154D01*
Y5140D01*
Y5126D01*
Y5112D01*
Y5098D01*
Y5084D01*
Y5070D01*
Y5056D01*
Y5042D01*
Y5028D01*
Y5014D01*
Y5000D01*
Y4986D01*
Y4972D01*
Y4958D01*
Y4944D01*
Y4930D01*
Y4916D01*
Y4902D01*
Y4888D01*
Y4874D01*
Y4860D01*
Y4846D01*
Y4832D01*
Y4818D01*
Y4804D01*
Y4790D01*
Y4776D01*
Y4762D01*
Y4748D01*
Y4734D01*
Y4720D01*
Y4706D01*
Y4692D01*
Y4678D01*
Y4664D01*
Y4650D01*
Y4636D01*
Y4622D01*
Y4608D01*
Y4594D01*
Y4580D01*
Y4566D01*
Y4552D01*
Y4538D01*
Y4524D01*
Y4510D01*
Y4496D01*
Y4482D01*
Y4468D01*
Y4454D01*
Y4440D01*
Y4426D01*
Y4412D01*
Y4398D01*
Y4384D01*
Y4370D01*
Y4356D01*
Y4342D01*
Y4328D01*
Y4314D01*
Y4300D01*
Y4286D01*
Y4272D01*
Y4258D01*
Y4244D01*
Y4230D01*
Y4216D01*
Y4202D01*
Y4188D01*
Y4174D01*
Y4160D01*
Y4146D01*
Y4132D01*
Y4118D01*
Y4104D01*
Y4090D01*
Y4076D01*
Y4062D01*
Y4048D01*
Y4034D01*
Y4020D01*
Y4006D01*
Y3992D01*
X27328D01*
Y4006D01*
Y4020D01*
Y4034D01*
Y4048D01*
Y4062D01*
Y4076D01*
Y4090D01*
Y4104D01*
Y4118D01*
Y4132D01*
Y4146D01*
Y4160D01*
Y4174D01*
Y4188D01*
Y4202D01*
Y4216D01*
Y4230D01*
Y4244D01*
Y4258D01*
Y4272D01*
Y4286D01*
Y4300D01*
Y4314D01*
Y4328D01*
Y4342D01*
Y4356D01*
Y4370D01*
Y4384D01*
Y4398D01*
Y4412D01*
Y4426D01*
Y4440D01*
Y4454D01*
Y4468D01*
Y4482D01*
Y4496D01*
Y4510D01*
Y4524D01*
Y4538D01*
Y4552D01*
Y4566D01*
Y4580D01*
Y4594D01*
Y4608D01*
Y4622D01*
Y4636D01*
Y4650D01*
Y4664D01*
Y4678D01*
Y4692D01*
Y4706D01*
Y4720D01*
Y4734D01*
Y4748D01*
Y4762D01*
Y4776D01*
Y4790D01*
Y4804D01*
Y4818D01*
Y4832D01*
Y4846D01*
Y4860D01*
Y4874D01*
Y4888D01*
Y4902D01*
Y4916D01*
Y4930D01*
Y4944D01*
Y4958D01*
Y4972D01*
Y4986D01*
Y5000D01*
Y5014D01*
Y5028D01*
Y5042D01*
Y5056D01*
Y5070D01*
Y5084D01*
Y5098D01*
Y5112D01*
Y5126D01*
Y5140D01*
Y5154D01*
Y5168D01*
Y5182D01*
Y5196D01*
Y5210D01*
Y5224D01*
Y5238D01*
Y5252D01*
Y5266D01*
Y5280D01*
X26054D01*
Y5294D01*
Y5308D01*
Y5322D01*
Y5336D01*
Y5350D01*
Y5364D01*
Y5378D01*
Y5392D01*
Y5406D01*
Y5420D01*
Y5434D01*
Y5448D01*
Y5462D01*
Y5476D01*
Y5490D01*
Y5504D01*
Y5518D01*
Y5532D01*
Y5546D01*
Y5560D01*
Y5574D01*
Y5588D01*
Y5602D01*
Y5616D01*
Y5630D01*
Y5644D01*
Y5658D01*
Y5672D01*
Y5686D01*
Y5700D01*
Y5714D01*
Y5728D01*
Y5742D01*
Y5756D01*
Y5770D01*
Y5784D01*
Y5798D01*
Y5812D01*
Y5826D01*
Y5840D01*
Y5854D01*
Y5868D01*
Y5882D01*
Y5896D01*
Y5910D01*
Y5924D01*
Y5938D01*
Y5952D01*
Y5966D01*
Y5980D01*
Y5994D01*
Y6008D01*
Y6022D01*
Y6036D01*
Y6050D01*
Y6064D01*
Y6078D01*
Y6092D01*
Y6106D01*
Y6120D01*
Y6134D01*
Y6148D01*
Y6162D01*
Y6176D01*
Y6190D01*
Y6204D01*
Y6218D01*
Y6232D01*
Y6246D01*
Y6260D01*
Y6274D01*
Y6288D01*
Y6302D01*
Y6316D01*
Y6330D01*
Y6344D01*
Y6358D01*
Y6372D01*
Y6386D01*
Y6400D01*
Y6414D01*
Y6428D01*
Y6442D01*
Y6456D01*
Y6470D01*
Y6484D01*
Y6498D01*
Y6512D01*
Y6526D01*
Y6540D01*
Y6554D01*
X27328D01*
Y6568D01*
Y6582D01*
Y6596D01*
Y6610D01*
Y6624D01*
Y6638D01*
Y6652D01*
Y6666D01*
Y6680D01*
Y6694D01*
Y6708D01*
Y6722D01*
Y6736D01*
Y6750D01*
Y6764D01*
Y6778D01*
Y6792D01*
Y6806D01*
Y6820D01*
Y6834D01*
Y6848D01*
Y6862D01*
Y6876D01*
Y6890D01*
Y6904D01*
Y6918D01*
Y6932D01*
Y6946D01*
Y6960D01*
Y6974D01*
Y6988D01*
Y7002D01*
Y7016D01*
Y7030D01*
Y7044D01*
Y7058D01*
Y7072D01*
Y7086D01*
Y7100D01*
Y7114D01*
Y7128D01*
Y7142D01*
Y7156D01*
Y7170D01*
Y7184D01*
Y7198D01*
Y7212D01*
Y7226D01*
Y7240D01*
Y7254D01*
Y7268D01*
Y7282D01*
Y7296D01*
Y7310D01*
Y7324D01*
Y7338D01*
Y7352D01*
Y7366D01*
Y7380D01*
Y7394D01*
Y7408D01*
Y7422D01*
Y7436D01*
Y7450D01*
Y7464D01*
Y7478D01*
Y7492D01*
Y7506D01*
Y7520D01*
Y7534D01*
Y7548D01*
Y7562D01*
Y7576D01*
Y7590D01*
Y7604D01*
Y7618D01*
Y7632D01*
Y7646D01*
Y7660D01*
Y7674D01*
Y7688D01*
Y7702D01*
Y7716D01*
Y7730D01*
Y7744D01*
Y7758D01*
Y7772D01*
Y7786D01*
Y7800D01*
Y7814D01*
Y7828D01*
Y7842D01*
X28616D01*
Y7828D01*
D02*
G37*
%LPC*%
G36*
X27622Y6400D02*
X27440D01*
Y6386D01*
Y6372D01*
Y6358D01*
Y6344D01*
Y6330D01*
Y6316D01*
Y6302D01*
Y6288D01*
Y6274D01*
Y6260D01*
Y6246D01*
Y6232D01*
Y6218D01*
Y6204D01*
Y6190D01*
Y6176D01*
Y6162D01*
Y6148D01*
Y6134D01*
Y6120D01*
X27160D01*
Y6134D01*
Y6148D01*
Y6162D01*
Y6176D01*
Y6190D01*
Y6204D01*
Y6218D01*
Y6232D01*
Y6246D01*
Y6260D01*
Y6274D01*
Y6288D01*
Y6302D01*
Y6316D01*
Y6330D01*
Y6344D01*
Y6358D01*
Y6372D01*
Y6386D01*
Y6400D01*
X26992D01*
Y6386D01*
Y6372D01*
Y6358D01*
Y6344D01*
Y6330D01*
Y6316D01*
Y6302D01*
Y6288D01*
Y6274D01*
Y6260D01*
Y6246D01*
Y6232D01*
Y6218D01*
Y6204D01*
Y6190D01*
Y6176D01*
Y6162D01*
Y6148D01*
Y6134D01*
Y6120D01*
Y6106D01*
Y6092D01*
Y6078D01*
Y6064D01*
Y6050D01*
Y6036D01*
Y6022D01*
Y6008D01*
Y5994D01*
Y5980D01*
Y5966D01*
Y5952D01*
Y5938D01*
Y5924D01*
Y5910D01*
Y5896D01*
Y5882D01*
Y5868D01*
Y5854D01*
Y5840D01*
Y5826D01*
Y5812D01*
Y5798D01*
Y5784D01*
Y5770D01*
Y5756D01*
Y5742D01*
Y5728D01*
Y5714D01*
X27160D01*
Y5728D01*
Y5742D01*
Y5756D01*
Y5770D01*
Y5784D01*
Y5798D01*
Y5812D01*
Y5826D01*
Y5840D01*
Y5854D01*
Y5868D01*
Y5882D01*
Y5896D01*
Y5910D01*
Y5924D01*
Y5938D01*
Y5952D01*
Y5966D01*
X27174D01*
Y5980D01*
X27440D01*
Y5966D01*
Y5952D01*
Y5938D01*
Y5924D01*
Y5910D01*
Y5896D01*
Y5882D01*
Y5868D01*
Y5854D01*
Y5840D01*
Y5826D01*
Y5812D01*
Y5798D01*
Y5784D01*
Y5770D01*
Y5756D01*
Y5742D01*
Y5728D01*
Y5714D01*
X27622D01*
Y5728D01*
Y5742D01*
Y5756D01*
Y5770D01*
Y5784D01*
Y5798D01*
Y5812D01*
Y5826D01*
Y5840D01*
Y5854D01*
Y5868D01*
Y5882D01*
Y5896D01*
Y5910D01*
Y5924D01*
Y5938D01*
Y5952D01*
Y5966D01*
Y5980D01*
Y5994D01*
Y6008D01*
Y6022D01*
Y6036D01*
Y6050D01*
Y6064D01*
Y6078D01*
Y6092D01*
Y6106D01*
Y6120D01*
Y6134D01*
Y6148D01*
Y6162D01*
Y6176D01*
Y6190D01*
Y6204D01*
Y6218D01*
Y6232D01*
Y6246D01*
Y6260D01*
Y6274D01*
Y6288D01*
Y6302D01*
Y6316D01*
Y6330D01*
Y6344D01*
Y6358D01*
Y6372D01*
Y6386D01*
Y6400D01*
D02*
G37*
G36*
X28742D02*
X28560D01*
Y6386D01*
Y6372D01*
X28546D01*
Y6358D01*
Y6344D01*
X28532D01*
Y6330D01*
Y6316D01*
X28518D01*
Y6302D01*
Y6288D01*
X28504D01*
Y6274D01*
Y6260D01*
Y6246D01*
X28490D01*
Y6232D01*
Y6218D01*
X28476D01*
Y6204D01*
Y6190D01*
X28462D01*
Y6176D01*
Y6162D01*
Y6148D01*
X28448D01*
Y6134D01*
Y6120D01*
X28434D01*
Y6106D01*
Y6092D01*
X28420D01*
Y6078D01*
Y6064D01*
Y6050D01*
X28406D01*
Y6036D01*
Y6022D01*
X28392D01*
Y6008D01*
Y5994D01*
X28378D01*
Y5980D01*
Y5966D01*
Y5952D01*
X28364D01*
Y5938D01*
Y5924D01*
X28350D01*
Y5910D01*
Y5896D01*
X28336D01*
Y5882D01*
Y5868D01*
Y5854D01*
X28322D01*
Y5840D01*
Y5826D01*
X28308D01*
Y5812D01*
Y5798D01*
X28294D01*
Y5784D01*
Y5770D01*
Y5756D01*
X28280D01*
Y5742D01*
Y5728D01*
X28266D01*
Y5714D01*
X28448D01*
Y5728D01*
X28462D01*
Y5742D01*
Y5756D01*
Y5770D01*
X28476D01*
Y5784D01*
Y5798D01*
X28490D01*
Y5812D01*
Y5826D01*
Y5840D01*
X28798D01*
Y5826D01*
Y5812D01*
Y5798D01*
X28812D01*
Y5784D01*
Y5770D01*
X28826D01*
Y5756D01*
Y5742D01*
Y5728D01*
X28840D01*
Y5714D01*
X29022D01*
Y5728D01*
Y5742D01*
X29008D01*
Y5756D01*
Y5770D01*
Y5784D01*
X28994D01*
Y5798D01*
Y5812D01*
X28980D01*
Y5826D01*
Y5840D01*
X28966D01*
Y5854D01*
Y5868D01*
Y5882D01*
X28952D01*
Y5896D01*
Y5910D01*
X28938D01*
Y5924D01*
Y5938D01*
Y5952D01*
X28924D01*
Y5966D01*
Y5980D01*
X28910D01*
Y5994D01*
Y6008D01*
X28896D01*
Y6022D01*
Y6036D01*
Y6050D01*
X28882D01*
Y6064D01*
Y6078D01*
X28868D01*
Y6092D01*
Y6106D01*
X28854D01*
Y6120D01*
Y6134D01*
Y6148D01*
X28840D01*
Y6162D01*
Y6176D01*
X28826D01*
Y6190D01*
Y6204D01*
Y6218D01*
X28812D01*
Y6232D01*
Y6246D01*
X28798D01*
Y6260D01*
Y6274D01*
X28784D01*
Y6288D01*
Y6302D01*
Y6316D01*
X28770D01*
Y6330D01*
Y6344D01*
X28756D01*
Y6358D01*
Y6372D01*
X28742D01*
Y6386D01*
Y6400D01*
D02*
G37*
G36*
X28252D02*
X27748D01*
Y6386D01*
Y6372D01*
Y6358D01*
Y6344D01*
Y6330D01*
Y6316D01*
Y6302D01*
Y6288D01*
Y6274D01*
Y6260D01*
Y6246D01*
Y6232D01*
Y6218D01*
Y6204D01*
Y6190D01*
Y6176D01*
Y6162D01*
Y6148D01*
Y6134D01*
Y6120D01*
Y6106D01*
Y6092D01*
Y6078D01*
Y6064D01*
Y6050D01*
Y6036D01*
Y6022D01*
Y6008D01*
Y5994D01*
Y5980D01*
Y5966D01*
Y5952D01*
Y5938D01*
Y5924D01*
Y5910D01*
Y5896D01*
Y5882D01*
Y5868D01*
Y5854D01*
Y5840D01*
Y5826D01*
Y5812D01*
Y5798D01*
Y5784D01*
Y5770D01*
Y5756D01*
Y5742D01*
Y5728D01*
Y5714D01*
X27930D01*
Y5728D01*
Y5742D01*
Y5756D01*
Y5770D01*
Y5784D01*
Y5798D01*
Y5812D01*
Y5826D01*
Y5840D01*
Y5854D01*
Y5868D01*
Y5882D01*
Y5896D01*
Y5910D01*
Y5924D01*
Y5938D01*
Y5952D01*
Y5966D01*
X28238D01*
Y5980D01*
Y5994D01*
Y6008D01*
Y6022D01*
Y6036D01*
Y6050D01*
Y6064D01*
Y6078D01*
Y6092D01*
X28224D01*
Y6106D01*
X27930D01*
Y6120D01*
Y6134D01*
Y6148D01*
Y6162D01*
Y6176D01*
Y6190D01*
Y6204D01*
Y6218D01*
Y6232D01*
Y6246D01*
Y6260D01*
X28266D01*
Y6274D01*
Y6288D01*
Y6302D01*
Y6316D01*
Y6330D01*
Y6344D01*
Y6358D01*
Y6372D01*
Y6386D01*
X28252D01*
Y6400D01*
D02*
G37*
G36*
X27804Y5588D02*
X27790D01*
Y5574D01*
X27776D01*
Y5560D01*
Y5546D01*
Y5532D01*
X27720D01*
Y5546D01*
Y5560D01*
Y5574D01*
X27706D01*
Y5588D01*
X27692D01*
Y5574D01*
Y5560D01*
Y5546D01*
Y5532D01*
Y5518D01*
Y5504D01*
Y5490D01*
Y5476D01*
Y5462D01*
Y5448D01*
X27720D01*
Y5462D01*
Y5476D01*
Y5490D01*
Y5504D01*
X27776D01*
Y5490D01*
Y5476D01*
Y5462D01*
Y5448D01*
X27804D01*
Y5462D01*
Y5476D01*
Y5490D01*
Y5504D01*
Y5518D01*
Y5532D01*
Y5546D01*
Y5560D01*
Y5574D01*
Y5588D01*
D02*
G37*
G36*
X26782D02*
X26768D01*
Y5574D01*
Y5560D01*
Y5546D01*
Y5532D01*
X26698D01*
Y5546D01*
Y5560D01*
Y5574D01*
Y5588D01*
X26670D01*
Y5574D01*
Y5560D01*
Y5546D01*
Y5532D01*
Y5518D01*
Y5504D01*
Y5490D01*
Y5476D01*
Y5462D01*
Y5448D01*
X26698D01*
Y5462D01*
Y5476D01*
Y5490D01*
Y5504D01*
X26768D01*
Y5490D01*
Y5476D01*
Y5462D01*
Y5448D01*
X26796D01*
Y5462D01*
Y5476D01*
Y5490D01*
Y5504D01*
Y5518D01*
Y5532D01*
Y5546D01*
Y5560D01*
Y5574D01*
X26782D01*
Y5588D01*
D02*
G37*
G36*
X29232D02*
X29204D01*
Y5574D01*
Y5560D01*
Y5546D01*
Y5532D01*
Y5518D01*
Y5504D01*
Y5490D01*
Y5476D01*
Y5462D01*
Y5448D01*
X29288D01*
Y5462D01*
Y5476D01*
X29232D01*
Y5490D01*
Y5504D01*
Y5518D01*
Y5532D01*
Y5546D01*
Y5560D01*
Y5574D01*
Y5588D01*
D02*
G37*
G36*
X29050D02*
X29022D01*
Y5574D01*
Y5560D01*
Y5546D01*
Y5532D01*
Y5518D01*
Y5504D01*
Y5490D01*
Y5476D01*
Y5462D01*
Y5448D01*
X29106D01*
Y5462D01*
Y5476D01*
X29050D01*
Y5490D01*
Y5504D01*
Y5518D01*
Y5532D01*
Y5546D01*
Y5560D01*
Y5574D01*
Y5588D01*
D02*
G37*
G36*
X28868D02*
X28840D01*
Y5574D01*
Y5560D01*
X28826D01*
Y5546D01*
Y5532D01*
Y5518D01*
X28812D01*
Y5504D01*
Y5490D01*
X28798D01*
Y5476D01*
Y5462D01*
X28784D01*
Y5448D01*
X28812D01*
Y5462D01*
X28826D01*
Y5476D01*
X28896D01*
Y5462D01*
Y5448D01*
X28924D01*
Y5462D01*
Y5476D01*
Y5490D01*
X28910D01*
Y5504D01*
Y5518D01*
X28896D01*
Y5532D01*
Y5546D01*
X28882D01*
Y5560D01*
Y5574D01*
X28868D01*
Y5588D01*
D02*
G37*
G36*
X28546D02*
X28462D01*
Y5574D01*
Y5560D01*
Y5546D01*
Y5532D01*
Y5518D01*
Y5504D01*
Y5490D01*
Y5476D01*
Y5462D01*
Y5448D01*
X28490D01*
Y5462D01*
Y5476D01*
Y5490D01*
X28532D01*
Y5476D01*
Y5462D01*
X28546D01*
Y5448D01*
X28574D01*
Y5462D01*
X28560D01*
Y5476D01*
Y5490D01*
Y5504D01*
X28574D01*
Y5518D01*
Y5532D01*
Y5546D01*
Y5560D01*
Y5574D01*
X28546D01*
Y5588D01*
D02*
G37*
G36*
X28322D02*
X28266D01*
Y5574D01*
X28238D01*
Y5560D01*
X28224D01*
Y5546D01*
Y5532D01*
Y5518D01*
Y5504D01*
Y5490D01*
Y5476D01*
X28238D01*
Y5462D01*
X28252D01*
Y5448D01*
X28336D01*
Y5462D01*
X28350D01*
Y5476D01*
X28364D01*
Y5490D01*
Y5504D01*
Y5518D01*
Y5532D01*
Y5546D01*
X28350D01*
Y5560D01*
X28336D01*
Y5574D01*
X28322D01*
Y5588D01*
D02*
G37*
G36*
X28140D02*
X28042D01*
Y5574D01*
Y5560D01*
Y5546D01*
Y5532D01*
Y5518D01*
Y5504D01*
Y5490D01*
Y5476D01*
Y5462D01*
Y5448D01*
X28070D01*
Y5462D01*
Y5476D01*
Y5490D01*
Y5504D01*
X28126D01*
Y5518D01*
Y5532D01*
X28070D01*
Y5546D01*
Y5560D01*
X28140D01*
Y5574D01*
Y5588D01*
D02*
G37*
G36*
X27594D02*
X27482D01*
Y5574D01*
Y5560D01*
X27524D01*
Y5546D01*
Y5532D01*
Y5518D01*
Y5504D01*
Y5490D01*
Y5476D01*
Y5462D01*
Y5448D01*
X27552D01*
Y5462D01*
Y5476D01*
Y5490D01*
Y5504D01*
Y5518D01*
Y5532D01*
Y5546D01*
Y5560D01*
X27594D01*
Y5574D01*
Y5588D01*
D02*
G37*
G36*
X27342D02*
X27314D01*
Y5574D01*
Y5560D01*
Y5546D01*
Y5532D01*
Y5518D01*
Y5504D01*
Y5490D01*
Y5476D01*
Y5462D01*
Y5448D01*
X27412D01*
Y5462D01*
X27398D01*
Y5476D01*
X27342D01*
Y5490D01*
Y5504D01*
Y5518D01*
Y5532D01*
Y5546D01*
Y5560D01*
Y5574D01*
Y5588D01*
D02*
G37*
G36*
X27174D02*
X27146D01*
Y5574D01*
X27132D01*
Y5560D01*
Y5546D01*
Y5532D01*
X27118D01*
Y5518D01*
Y5504D01*
X27104D01*
Y5490D01*
Y5476D01*
X27090D01*
Y5462D01*
Y5448D01*
X27118D01*
Y5462D01*
Y5476D01*
X27188D01*
Y5462D01*
X27202D01*
Y5448D01*
X27230D01*
Y5462D01*
Y5476D01*
X27216D01*
Y5490D01*
Y5504D01*
X27202D01*
Y5518D01*
Y5532D01*
X27188D01*
Y5546D01*
Y5560D01*
X27174D01*
Y5574D01*
Y5588D01*
D02*
G37*
G36*
X26992D02*
X26908D01*
Y5574D01*
X26894D01*
Y5560D01*
Y5546D01*
Y5532D01*
Y5518D01*
Y5504D01*
Y5490D01*
Y5476D01*
Y5462D01*
Y5448D01*
X27006D01*
Y5462D01*
X26992D01*
Y5476D01*
X26922D01*
Y5490D01*
Y5504D01*
X26992D01*
Y5518D01*
Y5532D01*
X26922D01*
Y5546D01*
Y5560D01*
X26992D01*
Y5574D01*
Y5588D01*
D02*
G37*
%LPD*%
G36*
X28658Y6190D02*
Y6176D01*
Y6162D01*
X28672D01*
Y6148D01*
Y6134D01*
X28686D01*
Y6120D01*
Y6106D01*
Y6092D01*
X28700D01*
Y6078D01*
Y6064D01*
Y6050D01*
X28714D01*
Y6036D01*
Y6022D01*
X28728D01*
Y6008D01*
Y5994D01*
Y5980D01*
X28560D01*
Y5994D01*
Y6008D01*
Y6022D01*
X28574D01*
Y6036D01*
Y6050D01*
X28588D01*
Y6064D01*
Y6078D01*
Y6092D01*
X28602D01*
Y6106D01*
Y6120D01*
X28616D01*
Y6134D01*
Y6148D01*
Y6162D01*
X28630D01*
Y6176D01*
Y6190D01*
X28644D01*
Y6204D01*
X28658D01*
Y6190D01*
D02*
G37*
G36*
X28868Y5532D02*
Y5518D01*
X28882D01*
Y5504D01*
X28840D01*
Y5518D01*
Y5532D01*
X28854D01*
Y5546D01*
X28868D01*
Y5532D01*
D02*
G37*
G36*
X28546Y5546D02*
Y5532D01*
Y5518D01*
X28490D01*
Y5532D01*
Y5546D01*
Y5560D01*
X28546D01*
Y5546D01*
D02*
G37*
G36*
X28322D02*
X28336D01*
Y5532D01*
Y5518D01*
Y5504D01*
Y5490D01*
X28322D01*
Y5476D01*
X28266D01*
Y5490D01*
X28252D01*
Y5504D01*
Y5518D01*
Y5532D01*
Y5546D01*
X28266D01*
Y5560D01*
X28322D01*
Y5546D01*
D02*
G37*
G36*
X27160Y5532D02*
X27174D01*
Y5518D01*
Y5504D01*
X27146D01*
Y5518D01*
Y5532D01*
Y5546D01*
X27160D01*
Y5532D01*
D02*
G37*
%LPC*%
G36*
X29414Y2970D02*
X29316D01*
Y2956D01*
X29302D01*
Y2942D01*
X29288D01*
Y2928D01*
Y2914D01*
Y2900D01*
Y2886D01*
Y2872D01*
Y2858D01*
Y2844D01*
X29302D01*
Y2830D01*
X29316D01*
Y2816D01*
X29330D01*
Y2802D01*
X29386D01*
Y2816D01*
X29414D01*
Y2830D01*
X29428D01*
Y2844D01*
X29442D01*
Y2858D01*
Y2872D01*
Y2886D01*
Y2900D01*
Y2914D01*
Y2928D01*
X29428D01*
Y2942D01*
Y2956D01*
X29414D01*
Y2970D01*
D02*
G37*
G36*
X27356D02*
X27258D01*
Y2956D01*
X27244D01*
Y2942D01*
X27230D01*
Y2928D01*
Y2914D01*
Y2900D01*
Y2886D01*
Y2872D01*
Y2858D01*
Y2844D01*
X27244D01*
Y2830D01*
X27258D01*
Y2816D01*
X27272D01*
Y2802D01*
X27328D01*
Y2816D01*
X27356D01*
Y2830D01*
X27370D01*
Y2844D01*
X27384D01*
Y2858D01*
Y2872D01*
Y2886D01*
Y2900D01*
Y2914D01*
Y2928D01*
X27370D01*
Y2942D01*
Y2956D01*
X27356D01*
Y2970D01*
D02*
G37*
%LPD*%
D10*
X31693Y4626D02*
X32480D01*
Y6201D01*
X31693D02*
X32480D01*
X31693Y4626D02*
Y6201D01*
X17323Y10039D02*
Y11614D01*
Y10039D02*
X22047D01*
Y11614D01*
X17323D02*
X22047D01*
X6890Y6201D02*
X7677D01*
X6890Y4626D02*
Y6201D01*
Y4626D02*
X7677D01*
Y6201D01*
X31693Y15453D02*
X32480D01*
Y17028D01*
X31693D02*
X32480D01*
X31693Y15453D02*
Y17028D01*
X6890D02*
X7677D01*
X6890Y15453D02*
Y17028D01*
Y15453D02*
X7677D01*
Y17028D01*
X18101Y11000D02*
X18001Y11100D01*
X17801D01*
X17701Y11000D01*
Y10900D01*
X17801Y10800D01*
X18001D01*
X18101Y10700D01*
Y10600D01*
X18001Y10500D01*
X17801D01*
X17701Y10600D01*
X18700Y11000D02*
X18600Y11100D01*
X18400D01*
X18300Y11000D01*
Y10900D01*
X18400Y10800D01*
X18600D01*
X18700Y10700D01*
Y10600D01*
X18600Y10500D01*
X18400D01*
X18300Y10600D01*
X18900Y11100D02*
Y10500D01*
X19200D01*
X19300Y10600D01*
Y11000D01*
X19200Y11100D01*
X18900D01*
X19500Y10500D02*
X19700D01*
X19600D01*
Y11100D01*
X19500Y11000D01*
X20000D02*
X20100Y11100D01*
X20300D01*
X20400Y11000D01*
Y10900D01*
X20300Y10800D01*
X20200D01*
X20300D01*
X20400Y10700D01*
Y10600D01*
X20300Y10500D01*
X20100D01*
X20000Y10600D01*
X20600Y11000D02*
X20700Y11100D01*
X20900D01*
X21000Y11000D01*
Y10600D01*
X20900Y10500D01*
X20700D01*
X20600Y10600D01*
Y11000D01*
X21599Y11100D02*
X21399Y11000D01*
X21200Y10800D01*
Y10600D01*
X21299Y10500D01*
X21499D01*
X21599Y10600D01*
Y10700D01*
X21499Y10800D01*
X21200D01*
D11*
X26879Y12571D02*
Y12079D01*
Y12325D01*
X27207D01*
Y12571D01*
Y12079D01*
X27699Y12571D02*
X27371D01*
Y12079D01*
X27699D01*
X27371Y12325D02*
X27535D01*
X27863Y12079D02*
Y12407D01*
X28027Y12571D01*
X28191Y12407D01*
Y12079D01*
Y12325D01*
X27863D01*
X28355Y12571D02*
Y12079D01*
X28683D01*
X28847Y12571D02*
X29175D01*
X29011D01*
Y12079D01*
X29339Y12571D02*
Y12079D01*
Y12325D01*
X29667D01*
Y12571D01*
Y12079D01*
X30650Y12571D02*
X30323D01*
Y12325D01*
X30487D01*
X30323D01*
Y12079D01*
X31060Y12571D02*
X30896D01*
X30814Y12489D01*
Y12161D01*
X30896Y12079D01*
X31060D01*
X31142Y12161D01*
Y12489D01*
X31060Y12571D01*
X31306Y12079D02*
Y12571D01*
X31552D01*
X31634Y12489D01*
Y12325D01*
X31552Y12243D01*
X31306D01*
X31470D02*
X31634Y12079D01*
X32290D02*
Y12407D01*
X32454Y12571D01*
X32618Y12407D01*
Y12079D01*
Y12325D01*
X32290D01*
X32782Y12571D02*
Y12079D01*
X33110D01*
X33274Y12571D02*
Y12079D01*
X33602D01*
M02*
